<svg width="184.000000" height="50.000000" viewBox="0 0 184 50" fill="none" xmlns="http://www.w3.org/2000/svg" xmlns:xlink="http://www.w3.org/1999/xlink">
	<desc>
			Created with Pixso.
	</desc>
	<defs/>
	<path d="M39.77 12.34C40.98 11.12 41.74 9.44 41.74 7.58C41.74 3.86 38.72 0.84 35 0.84C32.64 0.84 30.57 2.05 29.37 3.88C29.05 4.2 2.21 37.27 1.96 37.65C0.75 38.87 0 40.55 0 42.41C0 46.13 3.01 49.15 6.74 49.15C9.09 49.15 11.16 47.94 12.36 46.11C12.68 45.79 39.52 12.72 39.77 12.34Z" fill="#FFFFFF" fill-opacity="1.000000" fill-rule="nonzero"/>
	<path d="M55.29 28.03C56.51 26.81 57.27 25.13 57.27 23.27C57.27 19.55 54.25 16.53 50.53 16.53C48.17 16.53 46.1 17.74 44.9 19.57C44.57 19.89 30.48 37.26 30.23 37.64C29.01 38.86 28.25 40.55 28.25 42.41C28.25 46.13 31.27 49.15 34.99 49.15C37.35 49.15 39.42 47.94 40.62 46.11C40.95 45.79 55.04 28.42 55.29 28.03Z" fill="#FFFFFF" fill-opacity="1.000000" fill-rule="nonzero"/>
	<path d="M70 7.58C70 11.3 66.98 14.32 63.25 14.32C59.53 14.32 56.51 11.3 56.51 7.58C56.51 3.86 59.53 0.84 63.25 0.84C66.98 0.84 70 3.86 70 7.58Z" fill="#FFFFFF" fill-opacity="1.000000" fill-rule="nonzero"/>
	<path d="M13.48 7.58C13.48 11.3 10.46 14.32 6.74 14.32C3.01 14.32 0 11.3 0 7.58C0 3.86 3.01 0.84 6.74 0.84C10.46 0.84 13.48 3.86 13.48 7.58Z" fill="#FFFFFF" fill-opacity="1.000000" fill-rule="nonzero"/>
	<path d="M111.29 18.55L107.06 18.55C106.75 15.86 104.37 14.3 101.03 14.3C97.46 14.3 95.19 16.13 95.19 18.6C95.18 21.39 98.21 22.46 100.49 23.03L103.32 23.77C107.02 24.68 111.69 26.71 111.69 31.96C111.69 36.88 107.75 40.47 100.93 40.47C94.4 40.47 90.33 37.22 90.04 31.96L94.44 31.96C94.7 35.12 97.52 36.63 100.9 36.63C104.63 36.63 107.34 34.75 107.34 31.91C107.34 29.33 104.94 28.31 101.83 27.49L98.4 26.55C93.72 25.28 90.82 22.91 90.82 18.86C90.82 13.84 95.3 10.5 101.13 10.5C107.05 10.5 111.16 13.89 111.29 18.55ZM122.3 18.18L126.77 18.18L126.77 21.59L122.3 21.59L122.3 33.59C122.3 36.05 123.54 36.5 124.92 36.5C125.6 36.5 126.12 36.37 126.4 36.31L127.17 39.83C126.67 40 125.77 40.27 124.42 40.28C121.07 40.35 118.04 38.43 118.05 34.47L118.05 21.59L114.86 21.59L114.86 18.18L118.05 18.18L118.05 12.95L122.3 12.95L122.3 18.18ZM176.59 18.18L181.06 18.18L181.06 21.59L176.59 21.59L176.59 33.59C176.59 36.05 177.83 36.5 179.21 36.5C179.89 36.5 180.41 36.37 180.69 36.31L181.46 39.83C180.96 40 180.06 40.27 178.71 40.28C175.36 40.35 172.33 38.43 172.34 34.47L172.34 21.59L169.15 21.59L169.15 18.18L172.34 18.18L172.34 12.95L176.59 12.95L176.59 18.18ZM158.48 40L154.23 40L154.23 18.18L158.34 18.18L158.34 21.65L158.56 21.65C159.35 19.3 161.54 17.85 164.1 17.85C164.65 17.85 165.48 17.9 165.91 17.95L165.91 22.02C165.57 21.91 164.57 21.75 163.69 21.75C160.68 21.75 158.48 23.81 158.48 26.67L158.48 40ZM144.26 37.02C143.45 38.65 141.42 40.47 137.82 40.47C133.67 40.47 130.44 38.12 130.44 33.83C130.44 28.87 134.67 27.8 138.8 27.31C142.73 26.86 144.32 26.88 144.32 25.34L144.32 25.24C144.32 22.77 142.91 21.33 140.17 21.33C137.32 21.33 135.73 22.82 135.1 24.37L131.11 23.46C132.52 19.49 136.17 17.9 140.11 17.9C143.58 17.9 148.58 19.16 148.58 25.5L148.58 40L144.43 40L144.43 37.02L144.26 37.02ZM134.6 33.89C134.6 35.99 136.33 37.07 138.73 37.07C142.27 37.07 144.33 34.71 144.33 32.12L144.33 29.31C143.72 29.93 140.45 30.3 139.08 30.47C136.61 30.81 134.6 31.62 134.6 33.89Z" fill="#FFFFFF" fill-opacity="1.000000" fill-rule="evenodd"/>
</svg>
