<svg width="243.000000" height="18.000000" viewBox="0 0 243 18" fill="none" xmlns="http://www.w3.org/2000/svg" xmlns:xlink="http://www.w3.org/1999/xlink">
	<desc>
			Created with Pixso.
	</desc>
	<defs/>
	<path id="Vector" d="M9 9.62L9.5 6.36L6.38 6.36L6.38 4.25C6.38 3.36 6.81 2.49 8.21 2.49L9.64 2.49L9.64 -0.29C9.64 -0.29 8.35 -0.5 7.11 -0.5C4.54 -0.5 2.86 1.05 2.86 3.88L2.86 6.36L0 6.36L0 9.62L2.86 9.62L2.86 17.5L6.38 17.5L6.38 9.62L9 9.62Z" fill="#FFFFFF" fill-opacity="1.000000" fill-rule="nonzero"/>
	<path id="Vector" d="M43.4 2.71C42.82 2.71 42.35 3.18 42.35 3.76C42.35 4.35 42.82 4.82 43.4 4.82C43.98 4.82 44.46 4.35 44.46 3.76C44.46 3.18 43.98 2.71 43.4 2.71Z" fill="#FFFFFF" fill-opacity="1.000000" fill-rule="nonzero"/>
	<path id="Vector" d="M38.71 11.33C37.14 11.33 35.87 10.06 35.87 8.5C35.87 6.93 37.14 5.66 38.71 5.66C40.27 5.66 41.55 6.93 41.55 8.5C41.55 10.06 40.27 11.33 38.71 11.33ZM38.71 4.06C36.26 4.06 34.28 6.05 34.28 8.5C34.28 10.94 36.26 12.93 38.71 12.93C41.15 12.93 43.14 10.94 43.14 8.5C43.14 6.05 41.15 4.06 38.71 4.06Z" fill="#FFFFFF" fill-opacity="1.000000" fill-rule="nonzero"/>
	<path id="Vector" d="M35.04 1.19C32.99 1.19 31.33 2.85 31.33 4.9L31.33 12.09C31.33 14.14 32.99 15.8 35.04 15.8L42.23 15.8C44.28 15.8 45.94 14.14 45.94 12.09L45.94 4.9C45.94 2.85 44.28 1.19 42.23 1.19L35.04 1.19ZM42.23 17.5L35.04 17.5C32.06 17.5 29.64 15.07 29.64 12.09L29.64 4.9C29.64 1.92 32.06 -0.5 35.04 -0.5L42.23 -0.5C45.21 -0.5 47.64 1.92 47.64 4.9L47.64 12.09C47.64 15.07 45.21 17.5 42.23 17.5Z" fill="#FFFFFF" fill-opacity="1.000000" fill-rule="nonzero"/>
	<path id="Vector" d="M89.42 1.65C88.72 1.97 87.95 2.16 87.2 2.28C87.56 2.22 88.08 1.58 88.29 1.32C88.61 0.92 88.88 0.47 89.02 -0.02C89.04 -0.06 89.06 -0.11 89.02 -0.13C88.97 -0.15 88.94 -0.14 88.9 -0.12C88.07 0.32 87.2 0.65 86.28 0.88C86.2 0.9 86.15 0.88 86.1 0.83C86.02 0.74 85.95 0.66 85.87 0.6C85.48 0.27 85.07 0.01 84.6 -0.18C83.99 -0.43 83.31 -0.54 82.65 -0.5C82.01 -0.45 81.38 -0.27 80.8 0.03C80.23 0.33 79.72 0.74 79.31 1.24C78.89 1.76 78.58 2.38 78.42 3.03C78.27 3.66 78.28 4.28 78.37 4.91C78.39 5.02 78.38 5.03 78.28 5.02C74.68 4.48 71.7 3.19 69.27 0.43C69.17 0.31 69.11 0.31 69.03 0.44C67.97 2.03 68.48 4.58 69.8 5.84C69.98 6.01 70.16 6.17 70.36 6.32C70.29 6.34 69.41 6.24 68.62 5.84C68.51 5.77 68.46 5.81 68.45 5.93C68.44 6.1 68.46 6.26 68.48 6.44C68.68 8.06 69.8 9.55 71.33 10.13C71.51 10.2 71.71 10.27 71.91 10.3C71.56 10.38 71.2 10.43 70.2 10.36C70.08 10.33 70.03 10.4 70.08 10.51C70.83 12.56 72.45 13.17 73.66 13.52C73.82 13.54 73.98 13.54 74.15 13.58C74.14 13.6 74.13 13.6 74.12 13.61C73.72 14.22 72.32 14.68 71.67 14.91C70.49 15.32 69.2 15.51 67.96 15.38C67.76 15.35 67.71 15.36 67.66 15.38C67.6 15.42 67.65 15.46 67.72 15.52C67.97 15.68 68.23 15.83 68.49 15.98C69.28 16.4 70.11 16.73 70.97 16.97C75.44 18.2 80.47 17.3 83.82 13.97C86.45 11.35 87.37 7.74 87.37 4.13C87.37 3.99 87.54 3.91 87.64 3.84C88.33 3.32 88.88 2.71 89.39 2.02C89.5 1.87 89.5 1.73 89.5 1.67C89.5 1.66 89.5 1.65 89.5 1.65C89.5 1.59 89.5 1.61 89.42 1.65Z" fill="#FFFFFF" fill-opacity="1.000000" fill-rule="nonzero"/>
	<path id="Vector" d="M115.33 11.24C115.32 11.29 115.3 11.33 115.29 11.38C114.63 13.97 114.56 14.54 113.88 15.74C113.55 16.32 113.19 16.86 112.79 17.38C112.74 17.44 112.7 17.51 112.61 17.49C112.51 17.47 112.5 17.38 112.49 17.3C112.38 16.51 112.32 15.72 112.35 14.93C112.38 13.9 112.51 13.54 113.84 7.93C113.86 7.84 113.84 7.77 113.81 7.69C113.49 6.83 113.43 5.96 113.71 5.07C114.31 3.16 116.48 3.01 116.86 4.59C117.1 5.57 116.48 6.85 116 8.73C115.61 10.29 117.44 11.4 119.01 10.26C120.46 9.21 121.02 6.7 120.91 4.92C120.7 1.36 116.81 0.59 114.33 1.74C111.5 3.05 110.85 6.56 112.13 8.17C112.3 8.37 112.42 8.5 112.37 8.71C112.29 9.03 112.21 9.35 112.12 9.67C112.06 9.91 111.86 10 111.62 9.9C111.15 9.71 110.75 9.41 110.43 9.01C109.35 7.66 109.04 5 110.47 2.75C112.07 0.25 115.03 -0.76 117.73 -0.45C120.96 -0.08 123 2.12 123.38 4.63C123.56 5.77 123.43 8.58 121.83 10.57C119.99 12.85 117.01 13 115.63 11.6C115.52 11.49 115.44 11.36 115.33 11.24Z" fill="#FFFFFF" fill-opacity="1.000000" fill-rule="evenodd"/>
	<path id="Vector" d="M158.84 6.78C158.7 6.79 158.55 6.8 158.4 6.8C156.78 6.8 155.27 5.98 154.38 4.63L154.38 12.03C154.38 15.05 151.93 17.5 148.91 17.5C145.89 17.5 143.44 15.05 143.44 12.03C143.44 9.01 145.89 6.56 148.91 6.56C149.03 6.56 149.14 6.57 149.25 6.57L149.25 9.27C149.14 9.26 149.03 9.24 148.91 9.24C147.37 9.24 146.12 10.49 146.12 12.03C146.12 13.57 147.37 14.82 148.91 14.82C150.45 14.82 151.82 13.6 151.82 12.06L151.84 -0.5L154.42 -0.5C154.66 1.81 156.53 3.61 158.85 3.78L158.85 6.78L158.84 6.78Z" fill="#FFFFFF" fill-opacity="1.000000" fill-rule="nonzero"/>
	<path id="Vector" d="M183.93 14.39L184.23 14.58C185.35 15.24 186.62 15.6 187.91 15.6C191.89 15.6 195.12 12.36 195.12 8.39C195.12 4.41 191.89 1.18 187.91 1.18C183.94 1.18 180.7 4.41 180.7 8.39C180.7 9.7 181.07 10.99 181.76 12.12L181.94 12.43L181.22 15.12L183.93 14.39ZM178.85 17.5L180.14 12.68C179.41 11.36 179.02 9.89 179.02 8.39C179.02 3.48 183.01 -0.5 187.91 -0.5C192.81 -0.5 196.8 3.48 196.8 8.39C196.8 13.29 192.81 17.28 187.91 17.28C186.44 17.28 184.99 16.9 183.69 16.2L178.85 17.5Z" fill="#FFFFFF" fill-opacity="1.000000" fill-rule="nonzero"/>
	<path id="Vector" d="M191.22 9.62C190.85 9.4 190.38 9.16 189.95 9.33C189.62 9.47 189.4 9.99 189.19 10.25C189.08 10.39 188.95 10.41 188.78 10.34C187.54 9.85 186.59 9.02 185.9 7.88C185.79 7.7 185.81 7.56 185.95 7.39C186.15 7.15 186.41 6.87 186.47 6.55C186.53 6.22 186.37 5.83 186.24 5.54C186.06 5.17 185.87 4.63 185.49 4.42C185.15 4.23 184.7 4.34 184.39 4.59C183.86 5.02 183.61 5.69 183.61 6.36C183.62 6.55 183.64 6.74 183.68 6.93C183.79 7.37 183.99 7.78 184.22 8.17C184.4 8.47 184.59 8.75 184.79 9.03C185.45 9.93 186.28 10.71 187.24 11.3C187.71 11.59 188.23 11.85 188.76 12.03C189.36 12.22 189.89 12.43 190.54 12.31C191.21 12.18 191.88 11.76 192.15 11.11C192.23 10.92 192.27 10.7 192.22 10.5C192.13 10.08 191.56 9.83 191.22 9.62Z" fill="#FFFFFF" fill-opacity="1.000000" fill-rule="evenodd"/>
	<path id="Vector" d="M234.03 9L227.56 12.2C227.31 12.34 226.45 12.15 226.45 11.86L226.45 5.29C226.45 5 227.31 4.82 227.57 4.96L233.76 8.33C234.02 8.48 234.29 8.86 234.03 9ZM242.52 5.14C242.52 2.02 239.99 -0.5 236.87 -0.5L222.45 -0.5C219.33 -0.5 216.8 2.02 216.8 5.14L216.8 11.85C216.8 14.97 219.33 17.5 222.45 17.5L236.87 17.5C239.99 17.5 242.52 14.97 242.52 11.85L242.52 5.14Z" fill="#FFFFFF" fill-opacity="1.000000" fill-rule="nonzero"/>
</svg>
