<svg width="600.000000" height="566.000000" viewBox="0 0 600 566" fill="none" xmlns="http://www.w3.org/2000/svg" xmlns:xlink="http://www.w3.org/1999/xlink">
	<desc>
			Created with Pixso.
	</desc>
	<defs/>
	<path d="M484.14 482.45L113.34 482.45L113.34 113.08L484.14 113.08L484.14 482.45Z" fill="#AAE0FF" fill-opacity="1.000000" fill-rule="nonzero"/>
	<path d="M3.27 565.73L596.72 565.73C598.53 565.73 600 564.26 600 562.45C600 560.64 598.53 559.17 596.72 559.17L3.27 559.17C1.46 559.17 0 560.64 0 562.45C0 564.26 1.46 565.73 3.27 565.73Z" fill="#2D5B98" fill-opacity="1.000000" fill-rule="nonzero"/>
	<path d="M163.19 533.21C144.87 533.21 130.03 518.36 130.03 500.05L130.03 454.84L196.35 454.84L196.35 500.05C196.35 518.36 181.5 533.21 163.19 533.21Z" fill="#5896FA" fill-opacity="1.000000" fill-rule="nonzero"/>
	<path d="M130.03 559.17L126.35 559.17L126.35 489.01L130.03 489.01L130.03 559.17Z" fill="#0E0E0E" fill-opacity="1.000000" fill-rule="nonzero"/>
	<path d="M200.02 559.17L196.35 559.17L196.35 489.01L200.02 489.01L200.02 559.17Z" fill="#0E0E0E" fill-opacity="1.000000" fill-rule="nonzero"/>
	<path d="M171.9 559.17L168.22 559.17L168.22 489.01L171.9 489.01L171.9 559.17Z" fill="#0E0E0E" fill-opacity="1.000000" fill-rule="nonzero"/>
	<path d="M126.35 536.89L126.35 533.21L196.52 533.21L196.52 536.89L126.35 536.89Z" fill="#0E0E0E" fill-opacity="1.000000" fill-rule="nonzero"/>
	<path d="M214.83 380.16C218.83 385.92 210.78 390.89 209.52 398.88C208.27 406.87 217.42 411.37 207.71 421.83C201.74 428.27 196.69 419.72 191.83 429.59C186.97 439.47 190.8 441.13 185.34 444.68C175.81 450.88 161.25 437.19 166.15 427.32C171.05 417.46 180.96 418.34 176.37 410.23C171.79 402.11 170.08 398.61 177.99 394.44C187.77 389.28 196.4 394.02 197.19 386.47C197.97 378.92 209.54 372.53 214.83 380.16Z" fill="#FFCA59" fill-opacity="1.000000" fill-rule="nonzero"/>
	<path d="M173 454.39L171.35 454.06C179.07 415.06 204.65 387.75 204.9 387.48L206.12 388.64C205.87 388.91 180.62 415.88 173 454.39Z" fill="#0E0E0E" fill-opacity="1.000000" fill-rule="nonzero"/>
	<path d="M86.58 365.75C82.44 374.18 94.1 379.14 97.37 389.46C100.63 399.78 88.6 403.43 103.55 415.32C112.76 422.65 114.69 418.07 118.07 434.45C121.05 448.88 132.01 435.15 140.21 443.62C150.79 454.54 167.31 430.56 158.85 418.5C150.38 406.43 140.5 409.55 144.93 397.89C149.37 386.22 144.08 377.44 132.78 373.51C118.79 368.65 113.76 380.39 111.2 370.55C108.64 360.72 92.05 354.6 86.58 365.75Z" fill="#ED5A24" fill-opacity="1.000000" fill-rule="nonzero"/>
	<path d="M156.86 455.57C139.03 406.12 100.2 375.53 99.81 375.22L101.19 373.45C101.58 373.76 140.92 404.75 158.98 454.81L156.86 455.57Z" fill="#0E0E0E" fill-opacity="1.000000" fill-rule="nonzero"/>
	<path d="M205.46 318.67C127.14 318.67 63.64 255.17 63.64 176.84C63.64 98.52 127.14 35.02 205.46 35.02C283.79 35.02 347.29 98.52 347.29 176.84C347.29 255.17 283.79 318.67 205.46 318.67Z" stroke="#2E77E6" stroke-opacity="1.000000" stroke-width="8.731000" stroke-dasharray="13.0959 13.0959"/>
	<path d="M241.37 167.54C241.52 166.43 241.63 165.31 241.63 164.16C241.63 150.35 230.44 139.16 216.63 139.16C206.28 139.16 197.39 145.46 193.6 154.44C190.51 151.69 186.46 150 182 150C172.35 150 164.53 157.82 164.53 167.47L161.27 167.47C152 167.47 144.41 175.06 144.41 184.34L144.41 184.34C144.41 193.61 152 201.2 161.27 201.2L240.13 201.2C249.4 201.2 256.99 193.61 256.99 184.34L256.99 184.34C256.99 175.48 250.07 168.18 241.37 167.54Z" fill="#FFFFFF" fill-opacity="1.000000" fill-rule="nonzero"/>
	<path d="M256.88 350.99L151.31 350.99C147.75 350.99 144.87 348.11 144.87 344.56L144.87 255.98C144.87 252.43 147.75 249.55 151.31 249.55L256.88 249.55C260.44 249.55 263.32 252.43 263.32 255.98L263.32 344.56C263.32 348.11 260.44 350.99 256.88 350.99Z" fill="#5896FA" fill-opacity="1.000000" fill-rule="nonzero"/>
	<path d="M239.95 310.8L168.55 310.8C166.21 310.8 164.3 308.89 164.3 306.55C164.3 304.22 166.21 302.3 168.55 302.3L239.95 302.3C242.29 302.3 244.2 304.22 244.2 306.55C244.2 308.89 242.29 310.8 239.95 310.8Z" fill="#FFFFFF" fill-opacity="1.000000" fill-rule="nonzero"/>
	<path d="M239.95 324.48L168.55 324.48C166.21 324.48 164.3 322.57 164.3 320.24C164.3 317.9 166.21 315.99 168.55 315.99L239.95 315.99C242.29 315.99 244.2 317.9 244.2 320.24C244.2 322.57 242.29 324.48 239.95 324.48Z" fill="#FFFFFF" fill-opacity="1.000000" fill-rule="nonzero"/>
	<path d="M181.88 320.61C181.88 321.44 181.21 322.11 180.39 322.11C179.56 322.11 178.89 321.44 178.89 320.61C178.89 319.79 179.56 319.12 180.39 319.12C181.21 319.12 181.88 319.79 181.88 320.61Z" fill="#80B2FF" fill-opacity="1.000000" fill-rule="nonzero"/>
	<path d="M187.01 320.61C187.01 321.44 186.34 322.11 185.51 322.11C184.69 322.11 184.02 321.44 184.02 320.61C184.02 319.79 184.69 319.12 185.51 319.12C186.34 319.12 187.01 319.79 187.01 320.61Z" fill="#80B2FF" fill-opacity="1.000000" fill-rule="nonzero"/>
	<path d="M192.14 320.61C192.14 321.44 191.47 322.11 190.64 322.11C189.82 322.11 189.15 321.44 189.15 320.61C189.15 319.79 189.82 319.12 190.64 319.12C191.47 319.12 192.14 319.79 192.14 320.61Z" fill="#80B2FF" fill-opacity="1.000000" fill-rule="nonzero"/>
	<path d="M197.27 320.61C197.27 321.44 196.6 322.11 195.77 322.11C194.95 322.11 194.28 321.44 194.28 320.61C194.28 319.79 194.95 319.12 195.77 319.12C196.6 319.12 197.27 319.79 197.27 320.61Z" fill="#80B2FF" fill-opacity="1.000000" fill-rule="nonzero"/>
	<path d="M202.4 320.61C202.4 321.44 201.73 322.11 200.9 322.11C200.07 322.11 199.41 321.44 199.41 320.61C199.41 319.79 200.07 319.12 200.9 319.12C201.73 319.12 202.4 319.79 202.4 320.61Z" fill="#80B2FF" fill-opacity="1.000000" fill-rule="nonzero"/>
	<path d="M207.52 320.61C207.52 321.44 206.85 322.11 206.03 322.11C205.2 322.11 204.53 321.44 204.53 320.61C204.53 319.79 205.2 319.12 206.03 319.12C206.85 319.12 207.52 319.79 207.52 320.61Z" fill="#80B2FF" fill-opacity="1.000000" fill-rule="nonzero"/>
	<path d="M212.65 320.61C212.65 321.44 211.98 322.11 211.16 322.11C210.33 322.11 209.66 321.44 209.66 320.61C209.66 319.79 210.33 319.12 211.16 319.12C211.98 319.12 212.65 319.79 212.65 320.61Z" fill="#80B2FF" fill-opacity="1.000000" fill-rule="nonzero"/>
	<path d="M217.78 320.61C217.78 321.44 217.11 322.11 216.28 322.11C215.46 322.11 214.79 321.44 214.79 320.61C214.79 319.79 215.46 319.12 216.28 319.12C217.11 319.12 217.78 319.79 217.78 320.61Z" fill="#80B2FF" fill-opacity="1.000000" fill-rule="nonzero"/>
	<path d="M222.91 320.61C222.91 321.44 222.24 322.11 221.41 322.11C220.59 322.11 219.92 321.44 219.92 320.61C219.92 319.79 220.59 319.12 221.41 319.12C222.24 319.12 222.91 319.79 222.91 320.61Z" fill="#80B2FF" fill-opacity="1.000000" fill-rule="nonzero"/>
	<path d="M220.69 274C220.69 283.07 213.34 290.42 204.28 290.42C195.21 290.42 187.86 283.07 187.86 274C187.86 264.94 195.21 257.59 204.28 257.59C213.34 257.59 220.69 264.94 220.69 274Z" fill="#FFFFFF" fill-opacity="1.000000" fill-rule="nonzero"/>
	<path d="M204.3 273.34C205.9 273.34 207.38 272.56 208.33 271.37C209.03 270.51 209.44 269.4 209.44 268.16C209.44 265.33 207.14 262.99 204.3 262.99C201.42 262.99 199.12 265.33 199.12 268.16C199.12 269.4 199.53 270.51 200.23 271.37C201.18 272.56 202.66 273.34 204.3 273.34Z" fill="#005CEA" fill-opacity="1.000000" fill-rule="nonzero"/>
	<path d="M213.4 282.57C213.4 285.84 195.15 285.84 195.15 282.57L195.16 278.76C195.88 273.56 211.91 273.34 213.4 278.76L213.4 282.57Z" fill="#005CEA" fill-opacity="1.000000" fill-rule="nonzero"/>
	<path d="M170.7 320.97L170.7 321.84C170.7 322 170.57 322.11 170.41 322.11C170.26 322.11 170.15 322 170.15 321.84L170.15 320.97C169.99 320.88 169.88 320.72 169.88 320.52C169.88 320.23 170.12 319.99 170.41 319.99C170.7 319.99 170.95 320.23 170.95 320.52C170.95 320.72 170.84 320.88 170.7 320.97ZM169.34 319.22C169.34 318.65 169.7 318.12 170.42 318.12C171.14 318.12 171.51 318.61 171.51 319.22L171.51 319.45L169.34 319.45L169.34 319.22ZM172.09 319.45L172.09 319.22C172.09 318.3 171.34 317.55 170.42 317.55C169.5 317.55 168.75 318.3 168.75 319.22L168.75 319.45L168.49 319.45L168.49 322.46C168.49 322.98 172.36 322.98 172.36 322.46L172.36 319.45L172.09 319.45Z" fill="#5896FA" fill-opacity="1.000000" fill-rule="nonzero"/>
	<path d="M170.43 306.24C170.76 306.24 171.08 306.08 171.28 305.83C171.42 305.64 171.51 305.41 171.51 305.15C171.51 304.55 171.02 304.06 170.43 304.06C169.82 304.06 169.33 304.55 169.33 305.15C169.33 305.41 169.42 305.64 169.57 305.83C169.77 306.08 170.08 306.24 170.43 306.24Z" fill="#5896FA" fill-opacity="1.000000" fill-rule="nonzero"/>
	<path d="M172.34 308.19C172.34 308.88 168.47 308.88 168.47 308.19L168.49 307.39C168.65 306.29 172.03 306.24 172.34 307.39L172.34 308.19Z" fill="#5896FA" fill-opacity="1.000000" fill-rule="nonzero"/>
	<path d="M195.44 307.8L179.79 307.8C179.1 307.8 178.54 307.24 178.54 306.55C178.54 305.87 179.1 305.31 179.79 305.31L195.44 305.31C196.12 305.31 196.68 305.87 196.68 306.55C196.68 307.24 196.12 307.8 195.44 307.8Z" fill="#80B2FF" fill-opacity="1.000000" fill-rule="nonzero"/>
	<path d="M216.07 307.8L200.42 307.8C199.74 307.8 199.18 307.24 199.18 306.55C199.18 305.87 199.74 305.31 200.42 305.31L216.07 305.31C216.76 305.31 217.32 305.87 217.32 306.55C217.32 307.24 216.76 307.8 216.07 307.8Z" fill="#80B2FF" fill-opacity="1.000000" fill-rule="nonzero"/>
	<path d="M209.49 337.74L195.31 337.74C193.29 337.74 191.67 336.11 191.67 334.1C191.67 332.09 193.29 330.46 195.31 330.46L209.49 330.46C211.5 330.46 213.13 332.09 213.13 334.1C213.13 336.11 211.5 337.74 209.49 337.74Z" fill="#1251B3" fill-opacity="1.000000" fill-rule="nonzero"/>
	<path d="M23.89 189.56C23.89 189.44 23.89 189.39 23.89 189.38C23.89 189.4 23.89 189.56 23.89 189.56Z" fill="#D9FFFF" fill-opacity="1.000000" fill-rule="nonzero"/>
	<path d="M23.89 189.56C23.89 189.44 23.89 189.39 23.89 189.38C23.89 189.4 23.89 189.56 23.89 189.56Z" fill="#D9FFFF" fill-opacity="1.000000" fill-rule="nonzero"/>
	<path d="M93.69 189.87C93.69 189.87 93.69 189.71 93.69 189.69C93.69 189.7 93.69 189.75 93.69 189.87Z" fill="#D9FFFF" fill-opacity="1.000000" fill-rule="nonzero"/>
	<path d="M93.69 189.87C93.69 189.87 93.69 189.71 93.69 189.69C93.69 189.7 93.69 189.75 93.69 189.87Z" fill="#D9FFFF" fill-opacity="1.000000" fill-rule="nonzero"/>
	<path d="M58.93 170.7C50.8 179.41 37.82 186.55 23.93 189.59C23.93 190.52 23.9 195.66 23.8 219.35C23.66 250.95 53.73 266.39 58.4 268.76C62.92 266.67 93.37 251.26 93.51 219.66C93.62 195.97 93.64 190.83 93.65 189.91C79.79 186.74 66.99 179.48 58.93 170.7Z" fill="#FFFFFF" fill-opacity="1.000000" fill-rule="nonzero"/>
	<path d="M58.85 176.41C50.88 183.72 39.85 189.46 27.71 192.59L27.59 219.36C27.54 231.61 32.41 242.69 42.06 252.3C48.4 258.61 55.07 262.53 58.45 264.29C58.6 264.21 58.76 264.13 58.92 264.05L58.92 176.47C58.89 176.45 58.87 176.43 58.85 176.41Z" fill="#296ACC" fill-opacity="1.000000" fill-rule="nonzero"/>
	<path d="M58.92 176.47L58.92 264.05C62.44 262.22 68.83 258.44 74.96 252.45C84.7 242.93 89.66 231.89 89.72 219.64L89.84 192.87C77.77 189.64 66.81 183.82 58.92 176.47Z" fill="#2E77E6" fill-opacity="1.000000" fill-rule="nonzero"/>
	<path d="M60.34 226.07L60.34 231.95C60.34 232.73 59.71 233.38 58.92 233.38C58.13 233.38 57.49 232.73 57.49 231.95L57.49 226.06C56.28 225.52 55.43 224.29 55.43 222.89C55.43 220.96 57 219.41 58.92 219.41C60.85 219.41 62.4 220.96 62.4 222.89C62.4 224.31 61.56 225.53 60.34 226.07ZM44.82 215.06L44.82 235.8C44.82 238.11 73.02 238.11 73.02 235.8L73.02 215.06L44.82 215.06Z" fill="#FFFFFF" fill-opacity="1.000000" fill-rule="nonzero"/>
	<path d="M70.55 213.58L67.7 213.58L67.7 212.19C67.7 207.35 63.76 203.41 58.92 203.41C54.08 203.41 50.14 207.35 50.14 212.19L50.14 213.58L47.29 213.58L47.29 212.19C47.29 205.77 52.51 200.56 58.92 200.56C65.33 200.56 70.55 205.77 70.55 212.19L70.55 213.58Z" fill="#FFFFFF" fill-opacity="1.000000" fill-rule="nonzero"/>
	<path d="M267.64 63.57L216.71 63.57L216.71 0L267.64 0L267.64 63.57Z" fill="#296ACC" fill-opacity="1.000000" fill-rule="nonzero"/>
	<path d="M274.25 70.14L223.31 70.14L223.31 6.56L274.25 6.56L274.25 70.14Z" fill="#FFFFFF" fill-opacity="1.000000" fill-rule="nonzero"/>
	<path d="M223.31 70.14L223.31 6.56L274.25 6.56L274.25 70.14L223.31 70.14Z" stroke="#5896FA" stroke-opacity="1.000000" stroke-width="6.341000"/>
	<path d="M282.64 76.59L231.7 76.59L231.7 13.01L282.64 13.01L282.64 76.59Z" fill="#FFFFFF" fill-opacity="1.000000" fill-rule="nonzero"/>
	<path d="M231.7 76.59L231.7 13.01L282.64 13.01L282.64 76.59L231.7 76.59Z" stroke="#5896FA" stroke-opacity="1.000000" stroke-width="6.341000"/>
	<path d="M288.74 83.15L237.81 83.15L237.81 19.57L288.74 19.57L288.74 83.15Z" fill="#5896FA" fill-opacity="1.000000" fill-rule="nonzero"/>
	<path d="M280.82 34.15L254.47 34.15L254.47 30.01L280.82 30.01L280.82 34.15Z" fill="#005CEA" fill-opacity="1.000000" fill-rule="nonzero"/>
	<path d="M280.82 43.86L246.68 43.86L246.68 39.73L280.82 39.73L280.82 43.86Z" fill="#005CEA" fill-opacity="1.000000" fill-rule="nonzero"/>
	<path d="M280.82 53.57L246.68 53.57L246.68 49.44L280.82 49.44L280.82 53.57Z" fill="#005CEA" fill-opacity="1.000000" fill-rule="nonzero"/>
	<path d="M280.82 63.29L246.68 63.29L246.68 59.15L280.82 59.15L280.82 63.29Z" fill="#005CEA" fill-opacity="1.000000" fill-rule="nonzero"/>
	<path d="M280.82 73.01L246.68 73.01L246.68 68.87L280.82 68.87L280.82 73.01Z" fill="#005CEA" fill-opacity="1.000000" fill-rule="nonzero"/>
	<path d="M122.96 69.2C122.96 79.13 114.9 87.19 104.97 87.19C95.03 87.19 86.97 79.13 86.97 69.2C86.97 59.26 95.03 51.21 104.97 51.21C114.9 51.21 122.96 59.26 122.96 69.2Z" fill="#FFFFFF" fill-opacity="1.000000" fill-rule="nonzero"/>
	<path d="M95.68 84.6C87.17 79.47 84.43 68.42 89.56 59.9C94.69 51.4 105.74 48.66 114.26 53.8C122.76 58.93 125.5 69.98 120.37 78.48C115.23 87 104.18 89.73 95.68 84.6ZM133.35 86.31C135.68 82.44 137.14 78.26 137.76 74.04L139.1 74.23L141.74 74.62L141.78 74.63C142.49 69.8 142.25 64.92 141.08 60.25L137.15 61.23C136.09 57.01 134.23 52.99 131.58 49.44L134.84 47.02C132.05 43.23 128.46 39.91 124.19 37.34L122.08 40.82C118.2 38.48 114.04 37.03 109.82 36.41L110.41 32.39C105.58 31.68 100.69 31.93 96.03 33.09L97.01 37.02C92.79 38.08 88.77 39.94 85.22 42.59L82.8 39.33C79.01 42.12 75.69 45.7 73.11 49.98L76.6 52.08C74.26 55.97 72.81 60.13 72.19 64.35L69.35 63.93L68.18 63.77L68.17 63.76C67.45 68.59 67.71 73.48 68.86 78.14L72.8 77.16C73.86 81.38 75.73 85.41 78.38 88.96L75.12 91.38C77.91 95.17 81.48 98.48 85.76 101.06L87.86 97.57C91.74 99.91 95.92 101.37 100.14 101.99L99.68 105.11L99.55 106.01C104.38 106.72 109.26 106.46 113.92 105.3L112.94 101.37C117.16 100.31 121.19 98.44 124.75 95.79L127.17 99.06C130.95 96.26 134.25 92.69 136.83 88.41L133.35 86.31Z" fill="#005CEA" fill-opacity="1.000000" fill-rule="nonzero"/>
	<path d="M56.7 101.45C52.33 104.34 46.46 103.14 43.57 98.77C40.68 94.41 41.88 88.54 46.25 85.65C50.61 82.77 56.48 83.96 59.36 88.32C62.25 92.69 61.06 98.56 56.7 101.45ZM66.02 83.92C64.71 81.94 63.05 80.3 61.18 79.05L61.58 78.46L62.36 77.29L62.37 77.27C60.24 75.84 57.86 74.85 55.38 74.35L54.95 76.45C52.71 76 50.37 75.97 48.09 76.43L47.67 74.33C45.24 74.8 42.85 75.76 40.66 77.21L41.84 79C39.85 80.31 38.22 81.97 36.97 83.84L35.19 82.65C33.76 84.78 32.78 87.16 32.28 89.64L34.37 90.07C33.92 92.31 33.89 94.64 34.36 96.93L32.26 97.34C32.73 99.78 33.68 102.16 35.13 104.36L36.92 103.17C38.24 105.16 39.89 106.8 41.76 108.04L40.92 109.3L40.58 109.82L40.57 109.82C42.7 111.25 45.09 112.24 47.56 112.74L47.99 110.65C50.23 111.1 52.57 111.12 54.86 110.66L55.27 112.76C57.71 112.29 60.09 111.33 62.28 109.88L61.1 108.1C63.09 106.78 64.73 105.12 65.97 103.25L67.35 104.18L67.75 104.44C69.18 102.31 70.16 99.93 70.66 97.45L68.57 97.03C69.02 94.78 69.04 92.44 68.59 90.15L70.69 89.74C70.21 87.31 69.26 84.93 67.81 82.74L66.02 83.92Z" fill="#1251B3" fill-opacity="1.000000" fill-rule="nonzero"/>
	<path d="M360.25 120.48L316.51 120.48C315.59 120.48 314.84 119.73 314.84 118.81L314.84 94C314.84 93.07 315.59 92.33 316.51 92.33L360.25 92.33C361.17 92.33 361.91 93.07 361.91 94L361.91 118.81C361.91 119.73 361.17 120.48 360.25 120.48Z" fill="#005CEA" fill-opacity="1.000000" fill-rule="nonzero"/>
	<path d="M361.91 102.5L314.84 102.5L314.84 97.64L361.91 97.64L361.91 102.5Z" fill="#5896FA" fill-opacity="1.000000" fill-rule="nonzero"/>
	<path d="M325.63 115.08L318.71 115.08C318.26 115.08 317.91 115.43 317.91 115.87C317.91 116.31 318.26 116.67 318.71 116.67L325.63 116.67C326.06 116.67 326.42 116.31 326.42 115.87C326.42 115.43 326.06 115.08 325.63 115.08Z" fill="#D1F5FF" fill-opacity="1.000000" fill-rule="nonzero"/>
	<path d="M336.27 115.08L329.35 115.08C328.91 115.08 328.55 115.43 328.55 115.87C328.55 116.31 328.91 116.67 329.35 116.67L336.27 116.67C336.71 116.67 337.07 116.31 337.07 115.87C337.07 115.43 336.71 115.08 336.27 115.08Z" fill="#D1F5FF" fill-opacity="1.000000" fill-rule="nonzero"/>
	<path d="M346.91 115.08L339.99 115.08C339.55 115.08 339.2 115.43 339.2 115.87C339.2 116.31 339.55 116.67 339.99 116.67L346.91 116.67C347.35 116.67 347.71 116.31 347.71 115.87C347.71 115.43 347.35 115.08 346.91 115.08Z" fill="#D1F5FF" fill-opacity="1.000000" fill-rule="nonzero"/>
	<path d="M357.55 115.08L350.64 115.08C350.2 115.08 349.84 115.43 349.84 115.87C349.84 116.31 350.2 116.67 350.64 116.67L357.55 116.67C358 116.67 358.35 116.31 358.35 115.87C358.35 115.43 358 115.08 357.55 115.08Z" fill="#D1F5FF" fill-opacity="1.000000" fill-rule="nonzero"/>
	<path d="M318.39 93.76C317.9 93.76 317.51 94.15 317.51 94.64L317.51 94.94C317.51 95.43 317.9 95.82 318.39 95.82C318.87 95.82 319.27 95.43 319.27 94.94L319.27 94.64C319.27 94.15 318.87 93.76 318.39 93.76Z" fill="#D1F5FF" fill-opacity="1.000000" fill-rule="nonzero"/>
	<path d="M320.28 94.79C320.28 95.36 320.75 95.82 321.32 95.82L324.98 95.82C325.55 95.82 326.01 95.36 326.01 94.79C326.01 94.22 325.55 93.76 324.98 93.76L321.32 93.76C320.75 93.76 320.28 94.22 320.28 94.79Z" fill="#D1F5FF" fill-opacity="1.000000" fill-rule="nonzero"/>
	<path d="M319.8 105.11L324.53 105.11C325.29 105.11 325.9 105.73 325.9 106.49L325.9 110.57C325.9 111.32 325.29 111.94 324.53 111.94L319.8 111.94C319.04 111.94 318.43 111.32 318.43 110.57L318.43 106.49C318.43 105.73 319.04 105.11 319.8 105.11Z" fill="#5896FA" fill-opacity="1.000000" fill-rule="nonzero"/>
	<path d="M342.92 192.18L342.92 188.97C342.92 187.51 341.74 186.32 340.28 186.32L312.14 186.32C310.68 186.32 309.49 187.51 309.49 188.97L309.49 245.81L382.29 245.81L382.29 192.18L342.92 192.18Z" fill="#1251B3" fill-opacity="1.000000" fill-rule="nonzero"/>
	<path d="M385.32 194.14L313.93 194.14L309.5 245.81L381.94 245.81L385.32 194.14Z" fill="#FFFFFF" fill-opacity="1.000000" fill-rule="nonzero"/>
	<path d="M382.29 245.81L309.5 245.81L317.22 194.78C317.45 193.29 318.73 192.18 320.24 192.18L386.86 192.18C388.73 192.18 390.16 193.85 389.88 195.69L382.29 245.81Z" fill="#3383FF" fill-opacity="1.000000" fill-rule="nonzero"/>
	<path d="M406.6 194.14C406.6 203.35 399.13 210.82 389.92 210.82C380.7 210.82 373.24 203.35 373.24 194.14C373.24 184.92 380.7 177.46 389.92 177.46C399.13 177.46 406.6 184.92 406.6 194.14Z" fill="#005CEA" fill-opacity="1.000000" fill-rule="nonzero"/>
	<path d="M389.92 178.06C381.05 178.06 373.85 185.27 373.85 194.13C373.85 203 381.05 210.21 389.92 210.21C398.78 210.21 405.99 203 405.99 194.13C405.99 185.27 398.78 178.06 389.92 178.06ZM389.92 211.43C380.38 211.43 372.62 203.67 372.62 194.13C372.62 184.6 380.38 176.85 389.92 176.85C399.45 176.85 407.21 184.6 407.21 194.13C407.21 203.67 399.45 211.43 389.92 211.43Z" fill="#FFFFFF" fill-opacity="1.000000" fill-rule="nonzero"/>
	<path d="M390.73 197.39L390.73 200.74C390.73 201.18 390.37 201.55 389.92 201.55C389.47 201.55 389.1 201.18 389.1 200.74L389.1 197.38C388.42 197.07 387.93 196.38 387.93 195.57C387.93 194.48 388.82 193.59 389.92 193.59C391.02 193.59 391.9 194.48 391.9 195.57C391.9 196.38 391.42 197.08 390.73 197.39ZM381.89 191.12L381.89 202.93C381.89 204.24 397.94 204.24 397.94 202.93L397.94 191.12L381.89 191.12Z" fill="#FFFFFF" fill-opacity="1.000000" fill-rule="nonzero"/>
	<path d="M396.54 190.27L394.91 190.27L394.91 189.48C394.91 186.72 392.67 184.48 389.91 184.48C387.16 184.48 384.92 186.72 384.92 189.48L384.92 190.27L383.29 190.27L383.29 189.48C383.29 185.83 386.26 182.86 389.91 182.86C393.57 182.86 396.54 185.83 396.54 189.48L396.54 190.27Z" fill="#FFFFFF" fill-opacity="1.000000" fill-rule="nonzero"/>
	<path d="M338.38 54.54C338.38 58.06 335.52 60.92 332 60.92C328.47 60.92 325.61 58.06 325.61 54.54C325.61 51.01 328.47 48.15 332 48.15C335.52 48.15 338.38 51.01 338.38 54.54Z" fill="#AAE0FF" fill-opacity="1.000000" fill-rule="nonzero"/>
	<path d="M170.69 78.37C170.69 81.89 167.83 84.75 164.3 84.75C160.77 84.75 157.92 81.89 157.92 78.37C157.92 74.84 160.77 71.98 164.3 71.98C167.83 71.98 170.69 74.84 170.69 78.37Z" fill="#AAE0FF" fill-opacity="1.000000" fill-rule="nonzero"/>
	<path d="M380.11 163.39C380.11 165.24 378.62 166.73 376.77 166.73C374.93 166.73 373.43 165.24 373.43 163.39C373.43 161.55 374.93 160.05 376.77 160.05C378.62 160.05 380.11 161.55 380.11 163.39Z" fill="#FFFFFF" fill-opacity="1.000000" fill-rule="nonzero"/>
	<path d="M30.48 169.66C30.48 171.5 28.98 173 27.14 173C25.29 173 23.8 171.5 23.8 169.66C23.8 167.81 25.29 166.32 27.14 166.32C28.98 166.32 30.48 167.81 30.48 169.66Z" fill="#AAE0FF" fill-opacity="1.000000" fill-rule="nonzero"/>
	<path d="M85.79 291.4C85.79 294.93 82.93 297.79 79.4 297.79C75.88 297.79 73.02 294.93 73.02 291.4C73.02 287.88 75.88 285.02 79.4 285.02C82.93 285.02 85.79 287.88 85.79 291.4Z" fill="#AAE0FF" fill-opacity="1.000000" fill-rule="nonzero"/>
	<path d="M181.88 14.97C181.27 14.97 180.77 14.48 180.77 13.87L180.77 2.02C180.77 1.41 181.27 0.91 181.88 0.91C182.49 0.91 182.99 1.41 182.99 2.02L182.99 13.87C182.99 14.48 182.49 14.97 181.88 14.97Z" fill="#AAE0FF" fill-opacity="1.000000" fill-rule="nonzero"/>
	<path d="M174.85 7.94C174.85 7.33 175.35 6.84 175.96 6.84L187.8 6.84C188.41 6.84 188.91 7.33 188.91 7.94C188.91 8.55 188.41 9.05 187.8 9.05L175.96 9.05C175.35 9.05 174.85 8.55 174.85 7.94Z" fill="#AAE0FF" fill-opacity="1.000000" fill-rule="nonzero"/>
	<path d="M307.82 167.08C307.2 167.08 306.71 166.59 306.71 165.97L306.71 154.13C306.71 153.52 307.2 153.02 307.82 153.02C308.43 153.02 308.92 153.52 308.92 154.13L308.92 165.97C308.92 166.59 308.43 167.08 307.82 167.08Z" fill="#FFFFFF" fill-opacity="1.000000" fill-rule="nonzero"/>
	<path d="M300.79 160.05C300.79 159.44 301.28 158.95 301.89 158.95L313.74 158.95C314.35 158.95 314.84 159.44 314.84 160.05C314.84 160.66 314.35 161.16 313.74 161.16L301.89 161.16C301.28 161.16 300.79 160.66 300.79 160.05Z" fill="#FFFFFF" fill-opacity="1.000000" fill-rule="nonzero"/>
	<path d="M295.77 323.11C295.16 323.11 294.67 322.61 294.67 322L294.67 310.16C294.67 309.54 295.16 309.05 295.77 309.05C296.38 309.05 296.88 309.54 296.88 310.16L296.88 322C296.88 322.61 296.38 323.11 295.77 323.11Z" fill="#FFFFFF" fill-opacity="1.000000" fill-rule="nonzero"/>
	<path d="M288.74 316.08C288.74 315.47 289.24 314.97 289.85 314.97L301.69 314.97C302.3 314.97 302.8 315.47 302.8 316.08C302.8 316.69 302.3 317.19 301.69 317.19L289.85 317.19C289.24 317.19 288.74 316.69 288.74 316.08Z" fill="#FFFFFF" fill-opacity="1.000000" fill-rule="nonzero"/>
	<path d="M197.18 238.23C195.22 238.23 193.63 236.64 193.63 234.69C193.63 232.73 195.22 231.14 197.18 231.14C199.13 231.14 200.72 232.73 200.72 234.69C200.72 236.64 199.13 238.23 197.18 238.23Z" stroke="#FFFFFF" stroke-opacity="1.000000" stroke-width="4.226000"/>
	<path d="M284.23 559.14L270.36 559.14L268.93 529L285.66 529L284.23 559.14Z" fill="#0E0E0E" fill-opacity="1.000000" fill-rule="nonzero"/>
	<path d="M525.12 559.14L511.26 559.14L509.82 529L526.55 529L525.12 559.14Z" fill="#0E0E0E" fill-opacity="1.000000" fill-rule="nonzero"/>
	<path d="M513.03 476.7C511.5 481.43 509.84 486.3 508.02 491.29L277.92 491.29C277.92 491.29 248.23 370.42 277.92 348.32C278.68 347.75 279.59 347.2 280.65 346.65C320.65 326.1 481 321.28 513.55 347.71C513.8 347.91 514.03 348.12 514.25 348.32C526.25 359.33 536.68 403.28 513.03 476.7Z" fill="#EA7B00" fill-opacity="1.000000" fill-rule="nonzero"/>
	<path d="M364.67 491.29L277.97 491.29L286.43 406.58C301.54 413.14 341.79 447.77 364.67 491.29Z" fill="#982C20" fill-opacity="1.000000" fill-rule="nonzero"/>
	<path d="M513.03 476.7C511.5 481.43 509.84 486.3 508.02 491.29L424.45 491.29C438.82 464.63 473.67 424.26 507.51 405.67L513.03 476.7Z" fill="#982C20" fill-opacity="1.000000" fill-rule="nonzero"/>
	<path d="M541.86 405.39L509.96 405.39C504.6 405.39 500.07 409.36 499.36 414.68L489.19 491.61L302.75 491.61L292.58 414.68C291.87 409.36 287.34 405.39 281.98 405.39L250.08 405.39C243.42 405.39 238.38 411.4 239.55 417.96L257.26 546.07L274.78 546.07L534.11 546.07L534.67 546.07L552.39 417.96C553.56 411.4 548.52 405.39 541.86 405.39Z" fill="#EA7B00" fill-opacity="1.000000" fill-rule="nonzero"/>
	<path d="M487.33 449.59C502.34 454.61 499.42 486.4 487.33 491.29L305.21 491.29C291.61 487.78 290.46 445.73 310.08 448.89C430.12 471.47 435.94 435.46 487.33 449.59Z" fill="#F2B066" fill-opacity="1.000000" fill-rule="nonzero"/>
	<path d="M348.53 417.37C348.47 425.58 348.91 433.3 349.79 440.07L435.19 440.07L440.25 356.69C435.17 326.23 421.29 318.85 399.31 318.85C379.64 318.85 366.54 334.9 358.58 356.38C351.69 374.94 348.65 397.54 348.53 417.37Z" fill="#007880" fill-opacity="1.000000" fill-rule="nonzero"/>
	<path d="M348.52 418.98L379.43 417.12C362.27 411.5 360.91 385.17 378.35 368.79L358.57 356.38C351.69 374.93 348.65 399.15 348.52 418.98Z" fill="#005459" fill-opacity="1.000000" fill-rule="nonzero"/>
	<path d="M342.64 457.3L459.97 457.3L459.97 417.37L354.28 417.37L342.64 457.3Z" fill="#0E0E0E" fill-opacity="1.000000" fill-rule="nonzero"/>
	<path d="M474.96 444.63L443.44 559.14L418.87 559.14C426.65 510.41 424.91 478.73 432.22 438.27C438.64 405.06 482.6 413.85 474.96 444.63Z" fill="#0E0E0E" fill-opacity="1.000000" fill-rule="nonzero"/>
	<path d="M434.62 559.14C434.62 559.06 434.61 558.99 434.61 558.91C434.61 550.42 441.49 543.54 449.98 543.54C458.47 543.54 465.35 550.42 465.35 558.91C465.35 558.99 465.35 559.06 465.35 559.14L434.62 559.14Z" fill="#B15626" fill-opacity="1.000000" fill-rule="nonzero"/>
	<path d="M452.94 543.83L447.36 542.12C443.67 534.87 427.94 535.76 430.13 544.59C423.96 545.51 420.72 542.44 420.72 542.44L418.87 559.14L452.19 559.14L452.94 543.83Z" fill="#B15626" fill-opacity="1.000000" fill-rule="nonzero"/>
	<path d="M336.58 444.63L368.1 559.14L392.67 559.14C384.89 510.41 386.63 478.73 379.31 438.27C372.9 405.06 328.94 413.85 336.58 444.63Z" fill="#0E0E0E" fill-opacity="1.000000" fill-rule="nonzero"/>
	<path d="M376.92 559.14C376.92 559.06 376.93 558.99 376.93 558.91C376.93 550.42 370.05 543.54 361.56 543.54C353.07 543.54 346.19 550.42 346.19 558.91C346.19 558.99 346.19 559.06 346.19 559.14L376.92 559.14Z" fill="#B15626" fill-opacity="1.000000" fill-rule="nonzero"/>
	<path d="M358.59 543.83L364.18 542.12C367.87 534.87 383.59 535.76 381.4 544.59C387.58 545.51 390.82 542.44 390.82 542.44L392.67 559.14L359.34 559.14L358.59 543.83Z" fill="#B15626" fill-opacity="1.000000" fill-rule="nonzero"/>
	<path d="M386.15 321.53C397.67 328.53 399.31 349.3 393.41 357.57L360.52 382.07L394 399.31L388.56 417.12C388.56 417.12 353.61 414.28 336.51 396.73C320.08 379.88 360.13 330.39 386.15 321.53Z" fill="#007880" fill-opacity="1.000000" fill-rule="nonzero"/>
	<path d="M409.53 353.04C399.67 340.66 406.48 321.53 419.04 322.09C459.97 336.5 472.6 376.5 459.64 394.46C448.53 409.84 399.67 415.77 399.67 415.77L399.67 398.92L433.62 391.59C433.62 391.59 416.11 364.47 409.53 353.04Z" fill="#007880" fill-opacity="1.000000" fill-rule="nonzero"/>
	<path d="M373.67 411.49C373.03 405.85 376.33 398.8 384.82 397.26C399.65 394.57 405.02 402.7 406.42 408.52C406.78 410.03 405.41 411.64 404.13 411.49C402.86 411.36 401.97 410.64 401.75 409.48C401.48 408.09 400.75 406.37 399.16 405.48C400.69 408.48 400.05 411.49 395.88 411.49L373.67 411.49Z" fill="#F7A594" fill-opacity="1.000000" fill-rule="nonzero"/>
	<path d="M407.14 411.48L418.81 352.97L421.29 352.97C420.5 357 409.02 415.54 408.66 417.37C405.6 417.37 377.51 417.37 373.69 417.37L369.87 411.48L407.14 411.48Z" fill="#99C1FF" fill-opacity="1.000000" fill-rule="nonzero"/>
	<path d="M421.29 352.97L508.11 352.97L495.27 417.37L408.66 417.37L421.29 352.97Z" fill="#FFFFFF" fill-opacity="1.000000" fill-rule="nonzero"/>
	<path d="M395.97 325.72C395.97 332.38 415.93 336.8 422.45 329.8C423.44 328.75 424.12 327.45 424.38 325.85L428.14 308.99L404.3 300L403.59 302.21L395.97 325.72Z" fill="#F7A594" fill-opacity="1.000000" fill-rule="nonzero"/>
	<path d="M424.38 325.85L428.14 308.99L405.59 302.92C399.75 320.29 420.58 334.17 424.38 325.85Z" fill="#F4856D" fill-opacity="1.000000" fill-rule="nonzero"/>
	<path d="M402.54 293.52C401.28 310.1 414.38 324.69 425.37 325.43C436.36 326.17 451.49 313.9 452.75 297.32C454 280.75 443.78 266.47 429.91 265.42C416.05 264.37 403.8 276.95 402.54 293.52Z" fill="#F7A594" fill-opacity="1.000000" fill-rule="nonzero"/>
	<path d="M420.91 266.67C436.11 257.05 444.47 266.1 452.04 275.7C457.35 282.43 461.11 287.27 467.72 288.29C455.01 304.32 429.59 293.74 421.58 277.68C420.79 286.82 410.01 294.4 402.54 293.52C400.12 283.35 407.17 262.77 420.91 266.67Z" fill="#0E0E0E" fill-opacity="1.000000" fill-rule="nonzero"/>
	<path d="M398.82 293.74C398.82 297.4 401.79 300.36 405.44 300.36C409.09 300.36 412.05 297.4 412.05 293.74C412.05 290.09 409.09 287.13 405.44 287.13C401.79 287.13 398.82 290.09 398.82 293.74Z" fill="#F7A594" fill-opacity="1.000000" fill-rule="nonzero"/>
</svg>
