<svg width="600.000000" height="432.000000" viewBox="0 0 600 432" fill="none" xmlns="http://www.w3.org/2000/svg" xmlns:xlink="http://www.w3.org/1999/xlink">
	<desc>
			Created with Pixso.
	</desc>
	<defs/>
	<path d="M589.34 308.41C587.29 309.28 585.36 310.84 584.62 312.31C583.77 313.46 583.58 315.21 584.12 316.55C584.41 317.28 585.04 318.2 586.35 318.41C588.6 318.86 589.56 316.47 589.87 315.42C590.54 313.16 590.35 310.37 589.34 308.41ZM586.9 319.53C586.66 319.53 586.41 319.5 586.16 319.45C584.77 319.22 583.7 318.33 583.14 316.94C582.46 315.25 582.71 313.12 583.73 311.75C584.52 310.15 586.57 308.48 588.76 307.5C588.32 306.93 587.77 306.48 587.12 306.22C585.64 305.63 582.95 305.51 580.9 306.47C579.83 306.96 579.14 307.66 578.84 308.54C578.75 308.82 578.45 308.97 578.18 308.87C577.9 308.78 577.75 308.48 577.84 308.21C578.22 307.06 579.13 306.12 580.45 305.51C582.49 304.56 585.53 304.45 587.52 305.24C588.44 305.61 589.2 306.27 589.78 307.1C590.16 306.98 590.54 306.87 590.91 306.8C593.16 306.05 595.09 306.09 596.61 306.95C598.24 307.87 599.37 309.73 599.98 312.48C600.05 312.77 599.87 313.05 599.58 313.11C599.3 313.18 599.01 313 598.95 312.71C598.41 310.26 597.44 308.64 596.09 307.87C594.84 307.16 593.19 307.15 591.18 307.82C590.9 307.87 590.62 307.95 590.33 308.04C591.43 310.26 591.61 313.27 590.88 315.72C590.16 318.16 588.7 319.53 586.9 319.53Z" fill="#292929" fill-opacity="1.000000" fill-rule="nonzero"/>
	<path d="M144.92 334.73C144.57 334.73 144.21 334.81 143.85 334.96C141.7 335.88 140.89 337.66 140.59 338.99C140.33 340.14 140.35 341.41 140.59 342.62C141.07 342.61 141.57 342.55 142.06 342.44C144.43 341.86 146.64 340 147.08 338.21C147.32 336.94 147 335.8 146.23 335.19C145.86 334.88 145.4 334.73 144.92 334.73ZM148.41 350.04C145.82 350.04 143.4 349.01 141.57 347.12C140.75 346.2 140.13 344.97 139.76 343.65C138.39 343.53 137.08 343.06 135.92 342.26C133.9 340.86 132.53 338.57 132.18 335.98C131.78 332.77 132.88 330.79 134.62 328.14C134.78 327.9 135.11 327.83 135.35 327.99C135.59 328.15 135.66 328.48 135.5 328.72C133.85 331.24 132.86 332.93 133.23 335.84C133.54 338.13 134.74 340.16 136.52 341.39C137.43 342.02 138.45 342.41 139.51 342.56C139.29 341.28 139.29 339.96 139.56 338.76C140.07 336.5 141.41 334.85 143.44 333.99C144.66 333.47 145.95 333.61 146.89 334.36C147.97 335.23 148.43 336.75 148.12 338.43C147.57 340.64 145.08 342.8 142.3 343.47C141.82 343.58 141.33 343.64 140.85 343.67C141.19 344.71 141.69 345.67 142.34 346.4C144.07 348.18 146.39 349.09 148.86 348.97C151.46 348.84 153.87 347.6 155.48 345.56C155.66 345.33 156 345.29 156.22 345.47C156.45 345.65 156.49 345.98 156.31 346.21C154.51 348.49 151.82 349.88 148.91 350.03C148.74 350.04 148.58 350.04 148.41 350.04Z" fill="#292929" fill-opacity="1.000000" fill-rule="nonzero"/>
	<path d="M164.52 33.11C164.5 33.14 164.48 33.18 164.46 33.22C163.17 35.72 163.67 38.32 165.87 40.53C167.47 42.14 168.99 42.73 170.02 42.15C171.1 41.54 171.58 39.71 171.13 37.9C170.86 36.82 169.6 33.34 164.52 33.11ZM152.7 47.36C152.41 47.36 152.17 47.12 152.17 46.83C152.15 42.33 153.89 37.81 156.71 35.06C158.71 33.11 161.19 32.07 163.92 32.04C166.06 28.69 170.52 26.62 174.44 27.27C176.74 27.65 178.75 28.91 180.69 30.13C184.29 32.37 187.4 34.31 191.4 30.1C191.6 29.89 191.93 29.88 192.14 30.08C192.35 30.28 192.36 30.61 192.16 30.82C187.57 35.67 183.79 33.31 180.13 31.02C178.28 29.86 176.36 28.66 174.27 28.31C171 27.77 167.19 29.42 165.17 32.1C169.39 32.51 171.54 35.18 172.15 37.64C172.72 39.94 172.04 42.22 170.54 43.07C169.67 43.56 167.81 43.98 165.12 41.28C162.72 38.87 162.08 35.91 163.33 33.12C161.1 33.27 159.12 34.17 157.45 35.81C154.83 38.38 153.21 42.6 153.23 46.83C153.23 47.12 152.99 47.36 152.7 47.36C152.7 47.36 152.7 47.36 152.7 47.36Z" fill="#292929" fill-opacity="1.000000" fill-rule="nonzero"/>
	<path d="M587.05 181.27C584.94 181.27 582.94 182.18 581.71 183.7C580.49 185.21 580.09 187.17 580.56 189.38C581.21 192.4 583.68 194.36 586.86 194.36C587.78 194.36 588.71 194.19 589.62 193.86C591.18 193.29 592.64 191.83 593.43 190.06C594.09 188.55 594.18 187.04 593.68 185.82C592.48 182.97 590 181.27 587.05 181.27ZM586.86 195.41C583.16 195.41 580.28 193.13 579.53 189.6C578.85 186.4 579.89 184.27 580.89 183.04C582.32 181.27 584.62 180.21 587.05 180.21C590.44 180.21 593.28 182.16 594.66 185.41C595.27 186.91 595.18 188.71 594.39 190.49C593.49 192.52 591.8 194.19 589.98 194.85C588.96 195.22 587.9 195.41 586.86 195.41Z" fill="#FAAD3A" fill-opacity="1.000000" fill-rule="nonzero"/>
	<path d="M58.4 325.62C56.29 325.62 54.3 326.53 53.06 328.05C51.84 329.56 51.45 331.52 51.92 333.73C52.56 336.75 55.03 338.71 58.21 338.71C59.14 338.71 60.07 338.54 60.98 338.21C62.54 337.64 64 336.19 64.78 334.41C65.45 332.9 65.54 331.39 65.04 330.17C63.84 327.32 61.35 325.62 58.4 325.62ZM58.21 339.76C54.51 339.76 51.64 337.48 50.89 333.95C50.2 330.75 51.25 328.62 52.24 327.39C53.67 325.62 55.98 324.56 58.4 324.56C61.79 324.56 64.64 326.51 66.01 329.76C66.63 331.26 66.53 333.06 65.75 334.84C64.85 336.87 63.16 338.54 61.34 339.2C60.31 339.57 59.26 339.76 58.21 339.76Z" fill="#40BDDE" fill-opacity="1.000000" fill-rule="nonzero"/>
	<path d="M580.24 229.84C579.27 229.84 578.33 230.13 577.52 230.68L561.93 241.26C560.86 241.99 560.14 243.1 559.89 244.38C559.65 245.66 559.92 246.96 560.64 248.03L571.23 263.61C572.13 264.94 573.64 265.74 575.27 265.74C576.25 265.74 577.19 265.45 577.99 264.9L593.58 254.32C595.8 252.81 596.38 249.78 594.87 247.55L584.28 231.97C583.38 230.64 581.87 229.84 580.24 229.84ZM575.27 266.8C573.29 266.8 571.46 265.83 570.35 264.21L559.77 248.62C558.88 247.32 558.56 245.74 558.86 244.18C559.15 242.62 560.03 241.28 561.34 240.39L576.93 229.8C577.91 229.14 579.05 228.78 580.24 228.78C582.22 228.78 584.06 229.75 585.16 231.38L595.75 246.96C597.58 249.66 596.87 253.36 594.17 255.19L578.59 265.78C577.61 266.44 576.46 266.8 575.27 266.8Z" fill="#40BDDE" fill-opacity="1.000000" fill-rule="nonzero"/>
	<path d="M107.59 373.28C106.67 373.28 105.9 373.6 105.38 374.2C104.7 374.98 104.44 376.23 104.65 377.71L107.71 399.35C108.03 401.6 109.19 402.94 110.81 402.94C111.71 402.94 112.71 402.53 113.69 401.76L130.9 388.28C132.28 387.2 132.95 385.95 132.78 384.76C132.62 383.58 131.63 382.56 129.99 381.9L109.72 373.74C108.96 373.44 108.25 373.28 107.59 373.28ZM110.81 403.99C108.65 403.99 107.06 402.27 106.67 399.5L103.61 377.86C103.35 376.04 103.69 374.54 104.58 373.51C105.77 372.13 107.84 371.84 110.12 372.76L130.39 380.93C132.39 381.73 133.61 383.04 133.83 384.61C134.05 386.19 133.24 387.79 131.55 389.12L114.34 402.59C113.17 403.51 111.95 403.99 110.81 403.99Z" fill="#FAAD3A" fill-opacity="1.000000" fill-rule="nonzero"/>
	<path d="M274.56 11.54C273.76 11.54 272.85 11.83 271.94 12.39L253.24 23.71C251.74 24.62 250.92 25.78 250.95 26.97C250.97 28.17 251.83 29.3 253.38 30.15L272.53 40.68C274.33 41.67 276.01 41.65 277.01 40.63C277.71 39.91 278.07 38.77 278.04 37.34L277.58 15.49C277.53 13.05 276.37 11.54 274.56 11.54ZM275.04 42.47C274.08 42.47 273.07 42.18 272.02 41.6L252.87 31.07C250.98 30.03 249.92 28.59 249.89 27C249.86 25.41 250.85 23.92 252.69 22.8L271.39 11.48C272.49 10.82 273.55 10.48 274.56 10.48C276.97 10.48 278.57 12.44 278.64 15.47L279.09 37.32C279.13 39.04 278.67 40.44 277.77 41.37C277.06 42.09 276.12 42.47 275.04 42.47Z" fill="#FDCA81" fill-opacity="1.000000" fill-rule="nonzero"/>
	<path d="M374.99 167.55C329.17 167.55 284.95 190.59 250.47 232.44C202.89 290.19 192.9 319.13 187.54 334.68C187.26 335.48 186.99 336.26 186.73 337C179.93 356.42 180.26 373.16 187.7 386.74C196.52 402.87 215.36 414.45 243.68 421.16C268.76 427.1 306.58 430.37 350.19 430.37C350.2 430.37 350.21 430.37 350.21 430.37C419.03 430.37 502.7 421.87 534.53 402.87C551.74 392.6 560.68 366.51 557.88 334.78C553.33 283.37 515.78 211.16 424.92 176.8C408.69 170.66 391.89 167.55 374.99 167.55ZM350.21 431.43C350.2 431.43 350.2 431.43 350.19 431.43C306.5 431.43 268.59 428.14 243.44 422.19C214.81 415.41 195.75 403.65 186.77 387.25C179.18 373.39 178.83 356.37 185.73 336.65C185.99 335.91 186.26 335.14 186.54 334.33C191.92 318.72 201.95 289.66 249.65 231.77C284.34 189.67 328.85 166.49 374.99 166.49C392.02 166.49 408.94 169.62 425.29 175.81C466.06 191.23 500.15 216.01 523.88 247.48C543.85 273.97 556.3 304.94 558.93 334.68C561.77 366.82 552.63 393.3 535.07 403.78C503.07 422.88 419.17 431.43 350.21 431.43Z" fill="#292929" fill-opacity="1.000000" fill-rule="nonzero"/>
	<path d="M142.73 124.04C144.83 127.48 146.55 133.6 147.51 140.28C148.18 144.97 149.42 145.44 154 147.55C158.59 149.65 159.64 153.66 157.16 155.95C153.62 159.22 153.62 157.44 153.15 161.11C152.83 163.57 153.49 165.53 150.19 164.47C148.89 164.05 146.22 162.46 145.83 162.75C144.69 163.64 145.04 166.98 149.4 169.49C150.99 170.4 152.3 170.28 150.9 177.55C149.68 183.88 142.01 184.86 134.42 183.42C126.82 181.99 128.4 187.72 125.39 195.89C122.38 204.06 121.95 208.65 126.1 212.09C130.26 215.53 133.56 232.01 133.13 236.02C132.7 240.04 118.37 248.35 106.18 234.88C99.59 225.71 92.14 208.08 92.14 208.08C92.14 208.08 99.88 197.33 99.73 186.86C99.59 176.4 95.15 136.99 109.62 125.81C124.1 114.63 141.3 121.27 142.73 124.04Z" fill="#FEFEFE" fill-opacity="1.000000" fill-rule="nonzero"/>
	<path d="M92.74 208.14C93.7 210.39 100.57 226.16 106.61 234.57C111.96 240.48 117.47 241.73 121.14 241.73C127.51 241.73 132.39 237.99 132.6 235.97C133.02 232.09 129.69 215.74 125.77 212.5C121.22 208.73 121.95 203.69 124.89 195.71C125.69 193.54 126.16 191.55 126.58 189.79C127.55 185.66 128.26 182.68 132.34 182.68C132.99 182.68 133.7 182.75 134.52 182.91C136.51 183.28 138.42 183.47 140.18 183.47C144.3 183.47 149.42 182.43 150.38 177.45C151.58 171.23 150.79 170.82 149.58 170.19C149.44 170.11 149.29 170.03 149.13 169.94C146.53 168.44 144.89 166.37 144.76 164.39C144.7 163.5 144.97 162.75 145.51 162.34C145.97 161.98 146.77 162.33 148.46 163.14C149.15 163.47 149.87 163.81 150.35 163.97C150.91 164.15 151.35 164.24 151.68 164.24C152.3 164.24 152.42 163.98 152.51 162.4C152.53 161.98 152.56 161.52 152.62 161.05C152.94 158.6 153.07 158.34 154.3 157.53C154.82 157.18 155.61 156.67 156.8 155.57C157.69 154.74 158.08 153.66 157.89 152.5C157.62 150.75 156.08 149.08 153.78 148.03L153.52 147.9C149.15 145.91 147.68 145.23 146.98 140.36C145.99 133.44 144.28 127.59 142.28 124.32C141.61 123.03 135.98 120.08 128.02 120.08C123.41 120.08 116.53 121.14 109.94 126.23C97.7 135.68 99.26 166.26 100.01 180.95C100.14 183.33 100.24 185.39 100.26 186.86C100.39 196.63 93.92 206.44 92.74 208.14ZM121.14 242.79C117.25 242.79 111.44 241.48 105.79 235.23C99.2 226.07 91.72 208.46 91.65 208.28C91.58 208.11 91.6 207.92 91.71 207.77C91.78 207.66 99.34 197.04 99.2 186.87C99.18 185.43 99.08 183.38 98.96 181C98.2 166.13 96.62 135.18 109.3 125.39C116.12 120.12 123.24 119.02 128.02 119.02C135.77 119.02 142.19 121.85 143.2 123.8C145.25 127.16 147.02 133.15 148.03 140.21C148.65 144.51 149.67 144.98 153.96 146.94L154.22 147.07C156.88 148.28 158.6 150.2 158.94 152.33C159.18 153.85 158.67 155.27 157.52 156.34C156.26 157.5 155.43 158.05 154.88 158.41C153.97 159.01 153.95 159.02 153.67 161.18C153.61 161.63 153.59 162.06 153.56 162.46C153.47 164.13 153.31 166.03 150.03 164.97C149.48 164.8 148.73 164.44 148 164.09C147.36 163.78 146.43 163.34 146.07 163.26C145.87 163.48 145.78 163.86 145.81 164.32C145.9 165.57 146.95 167.47 149.66 169.03C149.8 169.11 149.94 169.18 150.07 169.25C151.79 170.15 152.7 170.99 151.42 177.65C150.56 182.09 146.57 184.53 140.18 184.53C138.35 184.53 136.38 184.33 134.32 183.94C133.58 183.8 132.91 183.73 132.34 183.73C129.22 183.73 128.64 185.66 127.61 190.03C127.18 191.82 126.71 193.84 125.88 196.08C122.69 204.76 122.83 208.69 126.44 211.68C130.77 215.27 134.11 231.84 133.65 236.08C133.36 238.78 127.98 242.79 121.14 242.79Z" fill="#292929" fill-opacity="1.000000" fill-rule="nonzero"/>
	<path d="M99.35 306.73C102.03 307.88 127.25 309.22 127.25 309.22C127.25 309.22 138.34 273.86 133.75 233.35C124.58 241.38 114.26 239.46 103.94 231.06C110.43 250.93 107.38 291.82 99.35 306.73Z" fill="#292929" fill-opacity="1.000000" fill-rule="nonzero"/>
	<path d="M138.16 149.89C138.72 151.68 140 152.87 141.02 152.55C142.04 152.23 142.41 150.53 141.85 148.74C141.3 146.95 140.02 145.76 139 146.08C137.98 146.39 137.6 148.1 138.16 149.89Z" fill="#292929" fill-opacity="1.000000" fill-rule="nonzero"/>
	<path d="M139.88 146.93C139.83 146.93 139.78 146.92 139.73 146.91C139.45 146.83 139.29 146.53 139.37 146.25L140.33 143C140.41 142.73 140.7 142.56 140.98 142.65C141.26 142.73 141.42 143.02 141.34 143.3L140.39 146.55C140.32 146.78 140.11 146.93 139.88 146.93Z" fill="#292929" fill-opacity="1.000000" fill-rule="nonzero"/>
	<path d="M114.45 254.75C111.5 232.99 101.77 218.6 93.17 205.26C91.85 203.22 90.62 203.51 90.06 203.62C85.95 204.44 81.36 206.37 82.53 208.89C82.78 209.42 83.17 209.97 83.64 210.58C81.86 210.94 79.72 211.39 77.18 211.95C67.63 214.05 61.71 217.83 55.79 223.75C49.87 229.67 19.57 266.41 11.16 275.77C22.25 297.17 41.27 300.33 41.27 300.33C41.27 300.33 58.65 282.84 69.54 269.47C69.16 272.14 67.82 296.98 64 306.73C70.75 310.65 89.51 310.46 99.95 310.01C101.66 311.59 108.33 310.17 108.33 310.17C108.33 310.17 117.51 277.3 114.45 254.75Z" fill="#40BDDE" fill-opacity="1.000000" fill-rule="nonzero"/>
	<path d="M82.25 129.97C77.23 131.83 71.64 136.41 68.63 156.05C67.18 165.55 63.65 175.74 64.32 185.42C64.94 194.49 72.79 196.96 80.79 198.56C87.84 199.97 115.24 206.5 116.96 194.7C118.98 180.94 97.29 174.03 100.4 161.26C101.03 158.66 103.64 155.43 106.32 154.83C109.75 154.07 110.77 157 113.43 158.79C116.68 160.98 118.62 159.7 120.57 156.42C122.42 153.31 121.73 148.34 121.43 144.85C121.05 140.28 120.51 138.64 124.47 137.33C129.83 135.56 134.42 131.93 129.26 125.81C136.14 133.98 139.58 132.69 145.17 129.11C150.76 125.52 151.04 122.23 148.89 116.06C146.74 109.9 140.15 100.44 128.54 101.87C116.93 103.31 118.08 106.46 104.18 109.33C90.27 112.19 81.39 116.35 82.25 129.97Z" fill="#292929" fill-opacity="1.000000" fill-rule="nonzero"/>
	<path d="M134.13 140.67C134.07 140.67 134.01 140.66 133.95 140.64C133.68 140.54 133.53 140.24 133.63 139.96C134.01 138.91 136.13 133.62 141.05 132.6C141.33 132.54 141.61 132.73 141.67 133.01C141.73 133.3 141.55 133.58 141.26 133.64C136.9 134.54 134.97 139.36 134.63 140.32C134.55 140.53 134.35 140.67 134.13 140.67Z" fill="#292929" fill-opacity="1.000000" fill-rule="nonzero"/>
	<path d="M99.54 309.55C99.53 309.55 99.52 309.55 99.51 309.55C99.22 309.53 99 309.28 99.02 308.99C99.04 308.53 99.14 307.28 99.28 305.46C100.11 294.84 102.31 266.61 101.5 260.17C100.66 253.42 102.49 251.73 105.26 249.17C105.6 248.85 105.97 248.52 106.34 248.15C104.98 247.28 101.4 245.01 98.69 243.36C95.87 241.63 95.24 239.28 93.58 233.01C93.08 231.14 92.52 229.02 91.77 226.43C89.5 218.54 86.27 214.62 84.13 212.02C83.61 211.38 83.15 210.83 82.77 210.3C82.61 210.07 82.66 209.74 82.9 209.57C83.14 209.4 83.47 209.45 83.63 209.69C83.99 210.19 84.43 210.72 84.95 211.35C87.14 214.01 90.46 218.04 92.79 226.13C93.54 228.73 94.13 230.95 94.6 232.74C96.18 238.71 96.78 240.95 99.25 242.45C102.65 244.54 107.42 247.59 107.47 247.62C107.61 247.71 107.7 247.85 107.71 248.01C107.73 248.17 107.67 248.32 107.56 248.44C107 249 106.47 249.49 105.97 249.95C103.27 252.45 101.77 253.83 102.55 260.04C103.37 266.59 101.17 294.89 100.34 305.54C100.2 307.35 100.1 308.6 100.07 309.06C100.05 309.34 99.82 309.55 99.54 309.55Z" fill="#FEFEFE" fill-opacity="1.000000" fill-rule="nonzero"/>
	<path d="M173.31 240.42L169.29 252.27C169.29 252.27 159.74 234.88 153.62 227.23C147.91 220.09 139.69 215.62 133.18 213.19C128.79 205.92 122.58 204.87 122.58 204.87C122.58 204.87 122.09 206.59 123 208.77C123.91 210.95 133.75 228 131.46 255.13C129.16 282.27 121.33 309.22 121.33 309.22L127.25 309.22C127.25 309.22 127.3 309.07 127.38 308.79C131.84 309.36 140.91 310.28 141.2 308.26C141.58 305.59 146.74 284.18 149.8 277.49C158.97 294.5 167.48 297.97 179.8 292.8C188.6 289.1 195.86 259.53 196.81 247.87C197 247.68 173.31 240.42 173.31 240.42Z" fill="#40BDDE" fill-opacity="1.000000" fill-rule="nonzero"/>
	<path d="M127.25 309.74C127.2 309.74 127.15 309.74 127.1 309.72C126.82 309.64 126.66 309.34 126.75 309.06C126.87 308.67 138.61 270.2 140.31 262.85C142.05 255.29 141.99 254.38 140.86 252.16C139.43 249.37 138.2 246.92 138.2 246.92C138.08 246.67 138.16 246.38 138.39 246.23C139.69 245.44 142.91 242.9 142.36 240.74C141.14 235.96 136.5 220.1 133.1 214.07L132.99 213.88C132.84 213.62 132.93 213.3 133.18 213.15C133.44 213.01 133.76 213.1 133.91 213.35L134.02 213.55C137.47 219.67 142.16 235.66 143.39 240.48C144.11 243.31 140.59 246.02 139.36 246.86C139.76 247.68 140.72 249.58 141.8 251.68C143.13 254.27 143.07 255.55 141.33 263.09C139.63 270.48 127.88 308.98 127.76 309.37C127.69 309.6 127.48 309.74 127.25 309.74Z" fill="#FEFEFE" fill-opacity="1.000000" fill-rule="nonzero"/>
	<path d="M149.8 278.02C149.73 278.02 149.65 278.01 149.58 277.97C149.32 277.85 149.2 277.54 149.32 277.27C157.91 258.47 154.71 251.7 152.8 247.66C152.46 246.95 152.18 246.34 151.98 245.75C151.89 245.47 152.03 245.17 152.31 245.08C152.59 244.99 152.89 245.14 152.98 245.41C153.16 245.95 153.43 246.53 153.75 247.2C155.74 251.41 159.08 258.46 150.28 277.71C150.19 277.91 150 278.02 149.8 278.02Z" fill="#292929" fill-opacity="1.000000" fill-rule="nonzero"/>
	<path d="M172.4 259.96C172.2 259.96 172.01 259.85 171.92 259.66C171.9 259.62 169.79 255.2 167.9 250.66C167.79 250.39 167.91 250.08 168.18 249.96C168.45 249.86 168.76 249.98 168.87 250.25C170.76 254.77 172.86 259.16 172.88 259.21C173 259.47 172.89 259.78 172.63 259.91C172.55 259.95 172.48 259.96 172.4 259.96Z" fill="#292929" fill-opacity="1.000000" fill-rule="nonzero"/>
	<path d="M174.84 235.88C176.98 229.14 180.14 210.94 180.85 204.21C181.57 197.47 177.56 188.01 182.29 181.99C187.02 175.97 190.03 172.96 191.32 169.95C192.61 166.94 195.62 166.51 197.19 169.52C198.77 172.53 196.33 177.84 192.75 181.56C201.49 175.97 202.21 177.98 204.93 173.68C207.66 169.38 212.96 158.34 216.4 158.63C219.27 154.76 222.56 156.91 223.14 162.21C224.86 162.07 226.43 166.08 225.29 172.1C229.44 174.54 229.01 183.42 223.14 190.16C217.26 196.9 206.08 200.91 203.64 206.36C201.21 211.8 197.19 243.76 197.19 243.76L174.84 235.88Z" fill="#FEFEFE" fill-opacity="1.000000" fill-rule="nonzero"/>
	<path d="M175.49 235.55L196.75 243.05C197.35 238.35 200.89 211.23 203.16 206.14C204.53 203.08 208.47 200.49 212.65 197.75C216.29 195.36 220.06 192.88 222.74 189.81C226.22 185.82 228.04 180.62 227.38 176.55C227.07 174.66 226.25 173.28 225.02 172.56C224.83 172.44 224.72 172.22 224.77 172C225.6 167.61 224.96 164.41 223.95 163.19C223.78 162.98 223.52 162.74 223.22 162.74C222.95 162.74 222.64 162.54 222.61 162.27C222.28 159.23 221.01 157.18 219.44 157.18C218.58 157.18 217.68 157.79 216.82 158.94C216.71 159.09 216.54 159.17 216.36 159.16C216.36 159.16 216.35 159.16 216.35 159.16C213.88 159.16 210.02 165.92 207.47 170.4C206.7 171.75 205.97 173.02 205.38 173.96C203.74 176.55 202.74 176.99 200.57 177.95C198.95 178.66 196.74 179.63 193.03 182.01C192.81 182.15 192.51 182.1 192.34 181.9C192.17 181.69 192.18 181.39 192.37 181.19C195.62 177.82 198.25 172.67 196.73 169.77C196.13 168.62 195.3 168 194.38 168C193.35 168 192.38 168.8 191.8 170.16C190.88 172.32 189.16 174.4 186.56 177.55C185.43 178.92 184.15 180.48 182.7 182.32C179.74 186.08 180.37 191.35 180.98 196.43C181.32 199.23 181.63 201.87 181.38 204.26C180.7 210.63 177.67 228.36 175.49 235.55ZM197.19 244.29C197.13 244.29 197.07 244.28 197.02 244.26L174.66 236.38C174.39 236.28 174.24 235.99 174.33 235.72C176.5 228.93 179.64 210.63 180.33 204.15C180.57 201.88 180.26 199.3 179.93 196.56C179.3 191.26 178.64 185.77 181.87 181.66C183.33 179.81 184.61 178.25 185.75 176.88C188.29 173.8 189.97 171.76 190.83 169.74C191.58 167.99 192.91 166.94 194.38 166.94C195.69 166.94 196.88 167.79 197.66 169.28C199.07 171.97 197.63 176.04 195.17 179.47C197.43 178.18 199 177.49 200.14 176.98C202.23 176.06 203.01 175.72 204.49 173.4C205.07 172.48 205.79 171.22 206.55 169.88C210.17 163.53 213.39 158.26 216.14 158.1C217.42 156.48 218.63 156.13 219.44 156.13C221.52 156.13 223.13 158.31 223.61 161.73C223.95 161.81 224.36 162.03 224.76 162.51C225.82 163.79 226.72 166.99 225.87 171.85C227.21 172.77 228.08 174.33 228.42 176.38C229.13 180.75 227.21 186.29 223.53 190.51C220.76 193.69 216.93 196.2 213.23 198.63C209.19 201.29 205.37 203.79 204.13 206.57C201.75 211.88 197.76 243.51 197.72 243.83C197.7 243.99 197.61 244.13 197.47 244.21C197.39 244.27 197.29 244.29 197.19 244.29Z" fill="#292929" fill-opacity="1.000000" fill-rule="nonzero"/>
	<path d="M197.91 191.41C197.67 191.41 197.45 191.24 197.4 191C196.67 187.96 193.95 182.99 192.46 182C192.22 181.84 192.15 181.51 192.31 181.27C192.47 181.02 192.8 180.96 193.04 181.12C194.9 182.36 197.69 187.68 198.42 190.75C198.49 191.04 198.32 191.32 198.03 191.39C197.99 191.4 197.95 191.41 197.91 191.41Z" fill="#292929" fill-opacity="1.000000" fill-rule="nonzero"/>
	<path d="M215.4 188.54C215.2 188.54 215.02 188.43 214.92 188.25C214.39 187.18 208.04 179.57 205.63 178.77C205.35 178.67 205.2 178.38 205.29 178.1C205.38 177.82 205.68 177.67 205.96 177.76C208.73 178.69 215.29 186.62 215.87 187.78C216 188.04 215.89 188.35 215.63 188.48C215.56 188.52 215.48 188.54 215.4 188.54Z" fill="#292929" fill-opacity="1.000000" fill-rule="nonzero"/>
	<path d="M214.11 189.26C213.91 189.26 213.72 189.14 213.63 188.95C213.5 188.69 213.62 188.37 213.88 188.25C215.54 187.48 219.19 182.8 220.18 177.45C220.68 174.71 221.53 173.01 222.76 172.25C223.9 171.54 225.15 171.78 226 172.02C226.28 172.1 226.45 172.4 226.37 172.68C226.29 172.96 225.99 173.12 225.71 173.04C224.66 172.74 223.92 172.77 223.31 173.14C222.37 173.73 221.66 175.25 221.22 177.65C220.2 183.15 216.4 188.25 214.33 189.21C214.25 189.24 214.18 189.26 214.11 189.26Z" fill="#292929" fill-opacity="1.000000" fill-rule="nonzero"/>
	<path d="M212.24 184.53C212.09 184.53 211.95 184.46 211.84 184.34C211.65 184.12 211.68 183.79 211.9 183.6C215.02 180.88 216.3 176.92 217.46 171C218.52 165.55 220.59 162.51 223.62 161.98C223.9 161.93 224.18 162.12 224.23 162.41C224.28 162.7 224.09 162.97 223.8 163.02C221.25 163.47 219.47 166.22 218.49 171.2C217.29 177.35 215.94 181.48 212.59 184.4C212.49 184.48 212.37 184.53 212.24 184.53Z" fill="#292929" fill-opacity="1.000000" fill-rule="nonzero"/>
	<path d="M208.95 180.8C208.84 180.8 208.74 180.77 208.64 180.7C208.4 180.54 208.35 180.21 208.51 179.97C210.07 177.76 212.02 171.44 213.59 166.36C214.76 162.57 215.78 159.29 216.51 157.95C216.65 157.69 216.97 157.6 217.23 157.74C217.48 157.88 217.58 158.2 217.44 158.45C216.75 159.7 215.71 163.09 214.6 166.68C212.93 172.09 211.03 178.23 209.38 180.58C209.28 180.72 209.11 180.8 208.95 180.8Z" fill="#292929" fill-opacity="1.000000" fill-rule="nonzero"/>
	<path d="M68.39 271.14C68.27 271.14 68.15 271.1 68.05 271.02C67.83 270.83 67.8 270.49 67.99 270.27C71.21 266.48 77.69 259.62 77.76 259.55C77.96 259.34 78.29 259.33 78.5 259.53C78.71 259.73 78.72 260.06 78.52 260.28C78.46 260.34 72 267.19 68.8 270.96C68.69 271.08 68.54 271.14 68.39 271.14Z" fill="#292929" fill-opacity="1.000000" fill-rule="nonzero"/>
	<path d="M173.9 234.18C171.79 238.14 170.57 244.56 171 245.14C171.43 245.71 187.1 246.98 197.8 254.64C200.24 255.79 201.01 244.5 200.63 243.19C199.63 239.75 175.19 232.74 173.9 234.18Z" fill="#292929" fill-opacity="1.000000" fill-rule="nonzero"/>
	<path d="M114.26 254.33C114.13 254.33 114.01 254.28 113.91 254.2C113.86 254.15 109.05 249.97 106.81 248.48C106.56 248.32 106.5 247.99 106.66 247.75C106.82 247.51 107.15 247.44 107.39 247.6C109.69 249.13 114.4 253.22 114.6 253.4C114.82 253.59 114.85 253.92 114.66 254.14C114.55 254.26 114.4 254.33 114.26 254.33Z" fill="#FEFEFE" fill-opacity="1.000000" fill-rule="nonzero"/>
	<path d="M131.66 252.18C131.53 252.18 131.39 252.13 131.29 252.02C131.08 251.82 131.08 251.48 131.29 251.28C133.31 249.26 135.89 247.71 137.59 246.69C138.02 246.43 138.38 246.21 138.66 246.04C138.9 245.88 139.23 245.95 139.39 246.19C139.55 246.43 139.48 246.76 139.23 246.92C138.95 247.11 138.57 247.33 138.14 247.59C136.48 248.59 133.96 250.1 132.04 252.02C131.93 252.13 131.8 252.18 131.66 252.18Z" fill="#FEFEFE" fill-opacity="1.000000" fill-rule="nonzero"/>
	<path d="M116.31 177.12C115.76 171.9 111.65 166.56 106.77 169.68C102.53 172.39 101.24 179.68 105.12 183.13C106.77 184.61 109.45 185.29 111.68 184.86C115.44 184.12 116.69 180.65 116.31 177.12Z" fill="#FAAD3A" fill-opacity="1.000000" fill-rule="nonzero"/>
	<path d="M127.08 66.26C123.23 66.26 119.36 66.43 115.59 66.76C56.76 71.97 19.96 105.06 6.21 165.11C0.17 191.51 -5.01 253.66 17.56 277.32C41.72 302.65 60.11 305.46 99.36 306.2C112.92 306.46 124.3 306.89 134.34 307.27C146.01 307.71 156.1 308.09 166.38 308.09C166.38 308.09 166.38 308.09 166.38 308.09C174.54 308.09 182.01 307.85 189.9 307.35L192.34 307.2C221.68 305.37 266.01 302.61 270.82 237.51C274.55 186.91 261.04 143.49 231.75 111.96C205.16 83.34 166.04 66.26 127.08 66.26ZM166.38 309.15C166.38 309.15 166.38 309.15 166.38 309.15C156.08 309.15 145.98 308.76 134.3 308.32C124.26 307.95 112.89 307.51 99.34 307.26C59.77 306.51 41.23 303.66 16.8 278.05C-6.07 254.08 -0.9 191.45 5.18 164.88C19.04 104.33 56.16 70.96 115.5 65.71C119.3 65.38 123.2 65.2 127.08 65.2C166.32 65.2 205.74 82.41 232.52 111.24C253.09 133.38 276.61 173.28 271.87 237.59C267 303.6 222.11 306.4 192.4 308.25L189.97 308.4C182.05 308.91 174.56 309.15 166.38 309.15Z" fill="#292929" fill-opacity="1.000000" fill-rule="nonzero"/>
	<path d="M181.06 91.65C188.22 89.78 211.1 85.42 223.08 82.93C235.06 80.44 248.14 78.73 249.85 79.51C251.56 80.29 232.57 104.25 223.7 113.75C220.75 115.77 216.7 112.04 216.7 112.04C208.3 120.75 198.8 124.02 197.25 124.33C195.69 124.64 194.91 114.99 194.76 109.23C194.6 103.48 195.62 102.35 190.87 100.05C176.08 92.89 181.06 91.65 181.06 91.65Z" fill="#40BDDE" fill-opacity="1.000000" fill-rule="nonzero"/>
	<path d="M197.25 124.86C197.01 124.86 196.8 124.7 196.74 124.47C196.66 124.19 196.83 123.9 197.11 123.82C197.89 123.54 200.73 118.94 202.8 115.58C205.03 111.97 207.14 108.56 208.39 107.31C210.75 104.94 232.52 90.08 241.76 83.83L196.51 101.79C196.24 101.9 195.93 101.76 195.82 101.49C195.72 101.22 195.85 100.92 196.12 100.81L245.92 81.04C246.18 80.94 246.48 81.06 246.6 81.32C246.71 81.58 246.6 81.88 246.35 82.01C244.81 82.82 211.61 105.58 209.14 108.05C207.97 109.22 205.8 112.73 203.7 116.13C200.1 121.97 198.41 124.56 197.39 124.84C197.34 124.85 197.29 124.86 197.25 124.86Z" fill="#292929" fill-opacity="1.000000" fill-rule="nonzero"/>
	<path d="M217.63 113.19C217.53 113.19 217.42 113.15 217.32 113.09L217.09 112.92C213.9 110.59 209.93 107.68 209 108.15C208.74 108.28 208.42 108.17 208.29 107.91C208.16 107.65 208.27 107.34 208.53 107.21C209.97 106.49 212.81 108.48 217.72 112.07L217.94 112.23C218.18 112.4 218.23 112.74 218.06 112.97C217.96 113.11 217.8 113.19 217.63 113.19Z" fill="#292929" fill-opacity="1.000000" fill-rule="nonzero"/>
	<path d="M258.25 198.35C252.26 198.9 248.86 202.62 249.46 213.2C250.06 223.78 247.67 234.7 251.86 238.79C256.05 242.89 266.63 242.89 276.42 243.06C286.2 243.23 298.87 242.95 302.62 242.89C311.45 242.76 314.6 241.23 315.79 234.32C316.5 230.25 314.81 207.29 314.75 204.88C314.6 198.87 310.7 198.1 302.17 197.71C293.99 197.34 263.84 197.84 258.25 198.35Z" fill="#FAAD3A" fill-opacity="1.000000" fill-rule="nonzero"/>
	<path d="M282.28 226.36C282.24 226.36 282.2 226.36 282.16 226.36C277.95 226.3 274.53 222.76 272.01 219.68C267.37 213.98 256.93 202.31 254.39 200.14C254.17 199.95 254.14 199.61 254.33 199.39C254.52 199.17 254.85 199.15 255.07 199.33C257.65 201.53 268.17 213.29 272.83 219.01C275.2 221.91 278.4 225.25 282.18 225.31C284.88 225.32 287.7 223.69 290.57 220.37C298.48 211.25 310.22 199.75 310.33 199.64C310.54 199.44 310.88 199.44 311.08 199.65C311.28 199.86 311.28 200.19 311.07 200.39C310.95 200.51 299.25 211.97 291.37 221.06C288.28 224.63 285.3 226.36 282.28 226.36Z" fill="#292929" fill-opacity="1.000000" fill-rule="nonzero"/>
	<path d="M251.86 239.32C251.67 239.32 251.48 239.22 251.39 239.03C251.26 238.77 251.36 238.45 251.62 238.32C253 237.64 260 231.03 265.11 226.2C269.35 222.21 271.77 219.93 272.35 219.58C272.6 219.42 272.92 219.5 273.07 219.75C273.22 220 273.15 220.32 272.9 220.48C272.39 220.79 269.21 223.79 265.84 226.97C258.91 233.51 253.5 238.57 252.1 239.27C252.02 239.31 251.94 239.32 251.86 239.32Z" fill="#292929" fill-opacity="1.000000" fill-rule="nonzero"/>
	<path d="M311.55 241.03C311.38 241.03 311.2 240.94 311.1 240.77C310.76 240.2 306.83 235.93 303.02 231.81C298 226.37 292.81 220.75 292.02 219.5C291.87 219.25 291.94 218.93 292.19 218.77C292.44 218.62 292.76 218.69 292.92 218.94C293.65 220.1 299.04 225.94 303.8 231.1C308.65 236.35 311.64 239.6 312.01 240.23C312.16 240.49 312.07 240.81 311.82 240.96C311.74 241.01 311.65 241.03 311.55 241.03Z" fill="#292929" fill-opacity="1.000000" fill-rule="nonzero"/>
	<path d="M501.17 64.97C498.26 52.64 471.5 36.8 460.06 41.2C448.62 45.6 463.23 50.71 463.23 50.71C445.63 47.54 437.18 49.65 435.42 54.05C433.66 58.45 441.05 60.21 441.05 60.21C429.08 60.56 415.7 69.9 417.64 76.41C419.57 82.92 427.49 80.55 427.49 80.55C416.23 89.61 418.07 98.83 429.82 97.74C417.46 107.04 415.7 124.12 420.45 130.28C425.21 136.44 429.82 127.11 429.82 127.11C424.85 140.84 432.25 149.82 439.29 138.37C437.7 154.04 451.61 156.15 456.01 148.41C460.24 163.37 470.27 161.08 472.03 153.69C477.49 160.55 488.23 158.27 490.34 150.87C496.33 157.91 501.61 151.49 501.08 146.03C507.24 153.25 516.92 154.13 518.86 141.01C527.66 147.53 532.06 147.35 529.68 131.77C544.38 137.14 552.13 120.77 535.23 106.69C546.5 109.68 545.26 98.06 529.16 91.11C540.51 90.84 541.92 83.1 536.28 77.38C530.65 71.65 521.15 60.56 501.17 64.97Z" fill="#292929" fill-opacity="1.000000" fill-rule="nonzero"/>
	<path d="M445.22 95.04C443.5 105.35 446.56 108.41 449.61 115.68C452.67 122.94 448.39 130.59 456.54 139.66C464.14 148.11 475.6 147.59 475.6 147.59L478.85 160.77L506.94 153.51L500.83 127.04C500.83 127.04 506.56 123.89 504.84 112.62C503.12 101.34 502.93 73.44 475.6 77.65C448.27 81.85 447.7 86.82 445.22 95.04Z" fill="#FEFEFE" fill-opacity="1.000000" fill-rule="nonzero"/>
	<path d="M475.6 147.06C475.84 147.06 476.06 147.23 476.11 147.46L479.23 160.13L506.31 153.13L500.31 127.16C500.26 126.93 500.37 126.7 500.57 126.58C500.63 126.55 505.96 123.42 504.32 112.7C504.14 111.54 503.98 110.21 503.81 108.75C502.41 97.16 500.07 77.75 480.89 77.75C479.25 77.75 477.5 77.89 475.68 78.17C449.61 82.18 448.24 86.77 445.97 94.37L445.72 95.19C444.38 103.26 446.04 106.76 448.33 111.59C448.91 112.8 449.5 114.04 450.1 115.47C451.28 118.27 451.4 121.05 451.53 123.99C451.74 128.79 451.95 133.76 456.93 139.31C463.57 146.69 473.32 147.07 475.2 147.07C475.71 147.07 475.59 147.06 475.6 147.06ZM478.85 161.3C478.76 161.3 478.66 161.28 478.58 161.23C478.46 161.16 478.37 161.04 478.34 160.9L475.19 148.12C473.19 148.12 463.07 147.71 456.15 140.01C450.91 134.18 450.68 128.79 450.47 124.04C450.35 121.19 450.23 118.5 449.13 115.88C448.53 114.47 447.95 113.24 447.38 112.04C445.09 107.22 443.28 103.42 444.7 94.95L444.96 94.06C447.34 86.06 448.79 81.24 475.52 77.12C477.39 76.84 479.2 76.69 480.89 76.69C501.01 76.69 503.42 96.68 504.85 108.63C505.03 110.07 505.19 111.39 505.36 112.54C506.89 122.56 502.7 126.38 501.42 127.29L507.46 153.39C507.52 153.67 507.35 153.95 507.07 154.02L478.98 161.29C478.94 161.3 478.89 161.3 478.85 161.3Z" fill="#292929" fill-opacity="1.000000" fill-rule="nonzero"/>
	<path d="M511.33 102.99C510.37 97.23 509.2 91.78 506.23 86.65C504.39 83.49 502.74 80.23 499.63 78.12C490.91 72.2 479.18 72.55 469.26 74.61C461.38 76.24 452.61 79.04 446.5 84.47C444.47 86.27 436.26 94.46 441.58 96.83C444.69 98.21 448.13 95.27 450.48 93.29C450.58 93.59 450.75 93.91 451 94.28C452.58 96.65 456.54 96.92 459.18 96.39C466.05 95.33 472.65 90.84 477.67 85.83C476.61 87.41 475.29 89.52 475.82 91.64C476.87 94.01 479.25 94.28 481.36 94.28C485.85 94.01 490.08 90.32 493.24 87.41C490.6 92.43 487.7 97.44 487.44 103.25C487.17 105.9 487.44 108.8 488.49 111.18C489.81 114.34 492.72 114.34 495.36 112.5C494.04 116.72 493.24 120.68 495.09 124.91C496.19 127.43 499.67 131.68 504.51 130.8C508.38 130.1 509.09 121.03 510.5 117.87C513.11 111.96 512.39 109.42 511.33 102.99Z" fill="#292929" fill-opacity="1.000000" fill-rule="nonzero"/>
	<path d="M439.92 98.72C437.56 98.72 435.27 97.88 434.63 95.49C434.26 94.09 434.48 92.41 434.81 91.29C435.45 89.12 437.43 86.04 439.22 84.43C439.43 84.24 439.76 84.25 439.96 84.47C440.16 84.69 440.14 85.02 439.92 85.22C438.29 86.69 436.41 89.61 435.83 91.59C435.54 92.57 435.34 94.03 435.66 95.22C436.45 98.19 440.66 97.68 441.49 97.54C444 97.14 445.85 96.56 447.34 95.73C447.59 95.59 447.91 95.68 448.06 95.94C448.2 96.19 448.11 96.51 447.85 96.66C446.26 97.55 444.29 98.16 441.66 98.58C441.09 98.67 440.5 98.72 439.92 98.72Z" fill="#FEFEFE" fill-opacity="1.000000" fill-rule="nonzero"/>
	<path d="M467.8 129.75C467.79 129.75 467.78 129.75 467.77 129.74C464.29 129.55 462.12 128.75 461.13 127.29C459.89 125.47 460.68 123.11 461.45 120.82C461.59 120.37 461.74 119.92 461.87 119.49C463.04 115.58 460.36 110.87 457.38 108.15C455.02 105.99 452.02 105.59 450.08 106.14C448.99 106.46 448.24 107.07 448.02 107.84C447.94 108.12 447.65 108.28 447.37 108.2C447.09 108.12 446.92 107.83 447 107.55C447.32 106.43 448.34 105.54 449.79 105.13C452.01 104.49 455.43 104.94 458.09 107.37C461.42 110.41 464.19 115.43 462.88 119.79C462.75 120.24 462.6 120.69 462.45 121.15C461.77 123.2 461.06 125.31 462 126.69C462.79 127.85 464.75 128.52 467.83 128.69C468.12 128.71 468.34 128.96 468.32 129.25C468.31 129.53 468.07 129.75 467.8 129.75Z" fill="#292929" fill-opacity="1.000000" fill-rule="nonzero"/>
	<path d="M466.18 106.4C466.06 106.4 465.95 106.36 465.85 106.29C465.62 106.11 465.59 105.77 465.77 105.54C467.61 103.22 472.95 98.4 482.68 103.94C482.93 104.08 483.02 104.4 482.88 104.66C482.74 104.91 482.41 105 482.16 104.85C473.47 99.91 468.68 103.57 466.59 106.2C466.49 106.33 466.34 106.4 466.18 106.4Z" fill="#292929" fill-opacity="1.000000" fill-rule="nonzero"/>
	<path d="M478.59 114.56C479.47 116.22 479.43 117.96 478.49 118.47C477.55 118.97 476.07 118.04 475.18 116.39C474.29 114.74 474.34 113 475.28 112.49C476.22 111.99 477.7 112.92 478.59 114.56Z" fill="#292929" fill-opacity="1.000000" fill-rule="nonzero"/>
	<path d="M475.93 113.28C475.84 113.28 475.76 113.26 475.68 113.22L472.69 111.63C472.43 111.49 472.33 111.17 472.47 110.91C472.61 110.65 472.93 110.56 473.18 110.69L476.17 112.29C476.43 112.42 476.53 112.74 476.39 113C476.3 113.18 476.11 113.28 475.93 113.28Z" fill="#292929" fill-opacity="1.000000" fill-rule="nonzero"/>
	<path d="M458.67 116.28C459.55 117.93 459.51 119.68 458.57 120.19C457.63 120.69 456.14 119.76 455.26 118.11C454.37 116.46 454.42 114.72 455.36 114.21C456.3 113.71 457.78 114.63 458.67 116.28Z" fill="#292929" fill-opacity="1.000000" fill-rule="nonzero"/>
	<path d="M456 115C455.92 115 455.84 114.98 455.76 114.94L452.77 113.34C452.51 113.21 452.41 112.89 452.55 112.63C452.69 112.37 453.01 112.28 453.26 112.41L456.25 114C456.51 114.14 456.61 114.46 456.47 114.72C456.38 114.9 456.19 115 456 115Z" fill="#292929" fill-opacity="1.000000" fill-rule="nonzero"/>
	<path d="M465.74 132.53C467.43 135.81 469.45 137.67 471.35 137.67C474.07 137.67 476.23 133.95 476.96 128.09C470.34 132.3 468.13 132.7 465.74 132.53ZM471.35 138.73C468.83 138.73 466.35 136.39 464.38 132.14C464.29 131.97 464.31 131.77 464.42 131.61C464.53 131.46 464.71 131.38 464.91 131.39C465.45 131.45 466.01 131.5 466.55 131.5C468.59 131.5 471.01 130.7 477.32 126.6C477.49 126.49 477.71 126.49 477.88 126.59C478.06 126.7 478.15 126.89 478.13 127.09C477.47 134.27 474.87 138.73 471.35 138.73Z" fill="#292929" fill-opacity="1.000000" fill-rule="nonzero"/>
	<path d="M469.87 138.32C469.82 138.32 469.78 138.32 469.73 138.3C469.45 138.23 469.28 137.94 469.36 137.65C470.29 134.24 474.08 131.69 476.58 131.84C476.87 131.86 477.09 132.11 477.07 132.4C477.05 132.69 476.83 132.91 476.51 132.89C474.39 132.76 471.16 135.06 470.38 137.93C470.32 138.17 470.1 138.32 469.87 138.32Z" fill="#292929" fill-opacity="1.000000" fill-rule="nonzero"/>
	<path d="M406.38 228.09C411.39 223.22 435.33 191.54 444.64 180.22C453.96 168.89 464.71 168.61 479.33 168.46C475.73 154.04 476.69 153.72 477.4 153.86C478.12 154.01 491.78 156.99 505.39 147.53C509 146.56 508.85 161.01 512.29 162.88C515.73 164.74 538.66 160.01 549.99 171.33C561.31 182.65 569.19 209.46 569.19 209.46C563.03 219.35 521.18 250.45 468.58 236.11C467.58 231.67 460.41 224.79 458.26 216.05C449.37 227.66 443.07 236.26 443.07 236.26C443.07 236.26 414.83 234.39 406.38 228.09Z" fill="#FAAD3A" fill-opacity="1.000000" fill-rule="nonzero"/>
	<path d="M490.3 172.81C484.54 172.81 480.53 170.48 478.95 168.83C478.75 168.62 478.75 168.29 478.96 168.08C479.17 167.88 479.51 167.89 479.71 168.1C482.67 171.2 494.82 176.76 511.23 162.19C511.44 162 511.78 162.02 511.97 162.24C512.17 162.46 512.15 162.79 511.93 162.99C503.45 170.51 496.01 172.81 490.3 172.81Z" fill="#292929" fill-opacity="1.000000" fill-rule="nonzero"/>
	<path d="M487.26 172.67C487.03 172.67 486.82 172.53 486.75 172.3C486.56 171.67 482.06 156.87 481.59 154.78C481.52 154.49 481.7 154.21 481.98 154.14C482.27 154.08 482.55 154.26 482.62 154.54C483.08 156.6 487.72 171.84 487.77 171.99C487.85 172.27 487.69 172.57 487.41 172.65C487.36 172.67 487.31 172.67 487.26 172.67Z" fill="#292929" fill-opacity="1.000000" fill-rule="nonzero"/>
	<path d="M493.47 172.58C493.24 172.58 493.04 172.43 492.96 172.21L487.42 154.53C487.34 154.25 487.49 153.96 487.77 153.87C488.05 153.78 488.34 153.94 488.43 154.21L493.97 171.89C494.06 172.17 493.91 172.47 493.63 172.55C493.58 172.57 493.52 172.58 493.47 172.58Z" fill="#292929" fill-opacity="1.000000" fill-rule="nonzero"/>
	<path d="M499.97 170.67C499.75 170.67 499.54 170.52 499.47 170.3L493.92 153.39C493.83 153.11 493.98 152.81 494.26 152.72C494.53 152.63 494.84 152.78 494.93 153.06L500.47 169.97C500.56 170.25 500.41 170.55 500.13 170.64C500.08 170.66 500.02 170.67 499.97 170.67Z" fill="#292929" fill-opacity="1.000000" fill-rule="nonzero"/>
	<path d="M505.89 167.61C505.67 167.61 505.46 167.46 505.39 167.23L500.7 151.37C500.62 151.09 500.78 150.8 501.06 150.71C501.34 150.63 501.63 150.79 501.72 151.07L506.4 166.93C506.48 167.21 506.32 167.5 506.04 167.59C505.99 167.6 505.94 167.61 505.89 167.61Z" fill="#292929" fill-opacity="1.000000" fill-rule="nonzero"/>
	<path d="M475.75 148.22C475.7 148.22 475.64 148.21 475.59 148.21C475.3 148.21 475.07 147.96 475.07 147.67C475.08 147.38 475.29 147.16 475.61 147.16C479.36 147.29 489.41 144 495.83 136.08C496.01 135.85 496.35 135.82 496.57 136C496.8 136.18 496.83 136.52 496.65 136.74C490.1 144.83 479.78 148.22 475.75 148.22Z" fill="#292929" fill-opacity="1.000000" fill-rule="nonzero"/>
	<path d="M460.27 221.88C460.06 221.88 459.87 221.76 459.78 221.56C456.29 213.61 456.01 205.68 456.01 203.44C456.01 203.14 456.25 202.91 456.54 202.91C456.83 202.91 457.07 203.14 457.07 203.44C457.07 205 457.25 213.18 460.75 221.14C460.87 221.41 460.75 221.72 460.48 221.84C460.41 221.87 460.34 221.88 460.27 221.88Z" fill="#292929" fill-opacity="1.000000" fill-rule="nonzero"/>
	<path d="M537.23 231.91C537 231.91 536.79 231.76 536.73 231.53C536.68 231.37 531.97 215.27 529.99 209.19C529.9 208.91 530.06 208.62 530.33 208.52C530.61 208.44 530.91 208.59 531 208.86C532.98 214.96 537.69 231.07 537.74 231.24C537.82 231.52 537.66 231.81 537.38 231.89C537.33 231.91 537.28 231.91 537.23 231.91Z" fill="#292929" fill-opacity="1.000000" fill-rule="nonzero"/>
	<path d="M502.6 131.73C500.97 131.73 499.07 131.19 497.05 130.13C496.79 129.99 496.69 129.67 496.83 129.42C496.96 129.16 497.28 129.06 497.54 129.19C499.95 130.46 502.11 130.93 503.78 130.55C507.71 129.66 509.34 122.78 509.34 119.29C509.34 119.06 509.49 118.86 509.7 118.79C509.91 118.72 510.15 118.79 510.29 118.97C512.08 121.3 514.2 122.39 516.94 122.39C519.62 122.21 522.2 119.25 522.53 116.92C522.57 116.63 522.85 116.43 523.13 116.48C523.42 116.52 523.62 116.78 523.58 117.07C523.18 119.84 520.21 123.23 516.97 123.45C516.97 123.45 516.97 123.45 516.97 123.45C514.33 123.45 512.15 122.53 510.34 120.65C509.98 124.97 507.94 130.69 504.01 131.58C503.57 131.68 503.1 131.73 502.6 131.73Z" fill="#FEFEFE" fill-opacity="1.000000" fill-rule="nonzero"/>
	<path d="M461.81 1.05C443.84 1.05 423.54 3.41 401.46 8.06C354.8 17.9 307.42 36.73 309.88 101.76C312.38 167.84 336.76 207.18 384.42 222.03C406.3 228.84 443.94 235.72 478.72 235.72C478.72 235.72 478.73 235.72 478.73 235.72C510.09 235.72 550.23 230.22 563.4 204.03C576.67 177.66 578.96 147.28 578.55 126.45C578.07 102.53 573.66 78.25 567.02 63.08C559.6 46.12 539.89 1.05 461.81 1.05ZM478.73 236.78C478.73 236.78 478.73 236.78 478.72 236.78C441.44 236.78 404.45 229.37 384.11 223.03C335.96 208.04 311.34 168.38 308.82 101.8C307.66 70.85 318.21 46.95 340.21 30.76C358.41 17.35 381.28 11.24 401.24 7.03C423.39 2.36 443.77 0 461.81 0C494.35 0 520.39 7.67 539.23 22.82C554.73 35.28 562.74 50.66 567.99 62.66C574.68 77.95 579.13 102.38 579.61 126.42C580.02 147.38 577.71 177.94 564.35 204.5C550.93 231.18 510.39 236.78 478.73 236.78Z" fill="#292929" fill-opacity="1.000000" fill-rule="nonzero"/>
	<path d="M356.06 54.7L314.66 54.7C307.46 54.7 301.96 60.89 302.4 68.37L303.51 87.4C303.92 94.33 309.73 99.77 316.46 99.67L346.42 99.21C347.99 103.86 349.13 108.39 352.13 108.17C354.27 107.96 355.19 103.42 355.8 99.04C362.08 98.65 367.26 93.3 367.49 86.7L368.17 68.08C368.43 60.75 363.03 54.7 356.06 54.7Z" fill="#FEFEFE" fill-opacity="1.000000" fill-rule="nonzero"/>
	<path d="M346.42 98.69C346.65 98.69 346.85 98.83 346.92 99.05C347.08 99.51 347.23 99.97 347.38 100.43C348.69 104.4 349.83 107.81 352.09 107.64C354.1 107.44 354.95 101.29 355.28 98.97C355.31 98.72 355.52 98.53 355.77 98.52C361.82 98.14 366.74 92.94 366.97 86.68L367.64 68.06C367.77 64.54 366.5 61.13 364.16 58.7C362 56.46 359.12 55.23 356.06 55.23L314.66 55.23C311.45 55.23 308.48 56.51 306.27 58.85C303.94 61.33 302.72 64.79 302.93 68.34L304.04 87.37C304.42 93.86 309.91 99.14 316.28 99.14L316.46 99.14L346.41 98.69C346.42 98.69 346.42 98.69 346.42 98.69ZM351.92 108.7C348.98 108.7 347.78 105.02 346.38 100.76C346.27 100.43 346.16 100.09 346.04 99.75L316.28 100.2C309.24 100.2 303.41 94.59 302.99 87.43L301.87 68.41C301.65 64.56 302.97 60.81 305.51 58.12C307.91 55.58 311.16 54.17 314.66 54.17L356.06 54.17C359.41 54.17 362.56 55.52 364.92 57.97C367.46 60.6 368.83 64.29 368.7 68.09L368.02 86.72C367.78 93.37 362.66 98.91 356.26 99.54C355.59 104.2 354.61 108.45 352.18 108.69C352.08 108.7 352 108.7 351.92 108.7Z" fill="#292929" fill-opacity="1.000000" fill-rule="nonzero"/>
	<path d="M322.63 77.77C322.63 80.06 320.81 81.92 318.57 81.92C316.33 81.92 314.51 80.06 314.51 77.77C314.51 75.47 316.33 73.61 318.57 73.61C320.81 73.61 322.63 75.47 322.63 77.77Z" fill="#40BDDE" fill-opacity="1.000000" fill-rule="nonzero"/>
	<path d="M338.68 77.77C338.68 80.06 336.86 81.92 334.62 81.92C332.38 81.92 330.56 80.06 330.56 77.77C330.56 75.47 332.38 73.61 334.62 73.61C336.86 73.61 338.68 75.47 338.68 77.77Z" fill="#40BDDE" fill-opacity="1.000000" fill-rule="nonzero"/>
	<path d="M354.73 77.77C354.73 80.06 352.91 81.92 350.67 81.92C348.42 81.92 346.61 80.06 346.61 77.77C346.61 75.47 348.42 73.61 350.67 73.61C352.91 73.61 354.73 75.47 354.73 77.77Z" fill="#40BDDE" fill-opacity="1.000000" fill-rule="nonzero"/>
	<path d="M489.23 412.41L448.12 412.41C447.82 412.41 447.59 412.18 447.59 411.88C447.59 411.59 447.82 411.36 448.12 411.36L489.23 411.36C489.52 411.36 489.75 411.59 489.75 411.88C489.75 412.18 489.52 412.41 489.23 412.41Z" fill="#292929" fill-opacity="1.000000" fill-rule="nonzero"/>
	<path d="M367.73 262.77C355.55 256.9 353.25 243.71 371.03 238.7C358.56 223.36 371.17 214.47 379.63 212.75C388.08 211.03 404.85 215.33 421.05 229.24C437.24 243.14 444.26 243.86 449.14 254.75C454.01 265.64 451.72 274.1 446.84 285.13C441.97 296.17 441.4 299.61 450.86 308.49C460.32 317.38 468.05 326.27 461.46 343.04C454.87 359.81 376.04 353.64 372.32 342.18C368.59 330.71 377.47 288.72 377.47 288.72L367.73 262.77Z" fill="#292929" fill-opacity="1.000000" fill-rule="nonzero"/>
	<path d="M358.7 331.43C356.84 323.26 359 304.5 375.32 295.16C387.23 288.36 393.53 297.89 393.53 297.89L395.39 329.28C395.39 329.28 362.71 331.57 358.7 331.43Z" fill="#292929" fill-opacity="1.000000" fill-rule="nonzero"/>
	<path d="M266.97 284.27C265.54 282.27 263.39 279.52 261.39 280.95C259.38 282.39 262.57 294.03 271.56 292.59C269.26 289.15 266.97 284.27 266.97 284.27Z" fill="#FEFEFE" fill-opacity="1.000000" fill-rule="nonzero"/>
	<path d="M262.56 281.08C262.26 281.08 261.98 281.18 261.69 281.38C261.3 281.66 261.12 283.17 261.79 285.28C262.86 288.61 265.59 292.18 270.05 292.18L270.05 292.18C270.25 292.18 270.45 292.17 270.65 292.16C268.53 288.8 266.51 284.54 266.49 284.5C265.79 283.53 264.05 281.08 262.56 281.08ZM270.05 293.24L270.05 293.24C265.02 293.24 261.91 289.12 260.78 285.6C260.2 283.77 259.93 281.35 261.08 280.52C261.54 280.19 262.04 280.03 262.56 280.03C264.34 280.03 265.94 281.92 267.4 283.97C267.47 284.1 269.75 288.93 272 292.29C272.1 292.44 272.12 292.63 272.04 292.8C271.97 292.96 271.82 293.08 271.64 293.11C271.11 293.19 270.57 293.24 270.05 293.24Z" fill="#292929" fill-opacity="1.000000" fill-rule="nonzero"/>
	<path d="M292.34 285.56C287.47 283.99 284.31 280.12 285.89 276.96C287.47 273.81 292.63 277.97 296.21 280.83C299.79 283.7 303.23 284.27 303.23 284.27C303.23 284.27 297.93 287 292.34 285.56Z" fill="#FEFEFE" fill-opacity="1.000000" fill-rule="nonzero"/>
	<path d="M287.7 276.36C287.07 276.36 286.65 276.63 286.36 277.2C285.9 278.13 285.89 279.15 286.34 280.22C287.19 282.25 289.55 284.1 292.5 285.06C293.51 285.32 294.61 285.45 295.75 285.45C298.15 285.45 300.28 284.86 301.6 284.38C300.22 283.92 298.08 283.01 295.88 281.25C293.26 279.15 289.78 276.36 287.7 276.36ZM295.75 286.51C294.52 286.51 293.33 286.36 292.21 286.07C288.94 285.02 286.33 282.93 285.36 280.63C284.8 279.28 284.82 277.93 285.42 276.73C285.88 275.8 286.67 275.31 287.7 275.31C290.15 275.31 293.65 278.11 296.47 280.37C299.96 283.16 303.29 283.75 303.32 283.75C303.54 283.79 303.72 283.97 303.76 284.19C303.79 284.42 303.68 284.64 303.47 284.74C303.33 284.81 299.99 286.51 295.75 286.51Z" fill="#292929" fill-opacity="1.000000" fill-rule="nonzero"/>
	<path d="M297.45 329.56C297.07 321.15 296.12 304.34 294.78 298.99C293.44 293.64 285.03 295.16 284.46 294.97C283.88 294.78 273.42 298.75 268.26 288.29C263.1 277.82 267.26 273.95 270.12 274.96C271.13 271.52 273.99 272.52 275.57 274.24C277.01 271.23 281.16 274.38 282.16 278.25C283.17 282.12 284.17 285.56 292.2 284.56C300.22 283.56 310.11 281.26 313.98 292.87C317.85 304.48 321.01 322.54 321.01 322.54C321.01 322.54 319.48 334.01 297.45 329.56Z" fill="#FEFEFE" fill-opacity="1.000000" fill-rule="nonzero"/>
	<path d="M297.96 329.13C301.14 329.75 304.05 330.06 306.64 330.06C318.66 330.06 320.32 323.32 320.47 322.54C320.22 321.15 317.15 304.06 313.48 293.04C310.87 285.21 305.5 284.21 301.11 284.21C298.79 284.21 296.39 284.53 294.06 284.85C293.45 284.93 292.85 285.01 292.26 285.08C291.3 285.2 290.41 285.26 289.61 285.26C283.44 285.26 282.49 281.61 281.65 278.39C280.95 275.67 278.72 273.57 277.27 273.57C276.74 273.57 276.34 273.86 276.05 274.47C275.97 274.63 275.82 274.74 275.65 274.76C275.47 274.79 275.3 274.73 275.18 274.6C274.39 273.73 273.38 273.19 272.55 273.19C271.65 273.19 271 273.83 270.63 275.1C270.59 275.24 270.49 275.36 270.37 275.43C270.24 275.49 270.09 275.5 269.95 275.45C268.91 275.09 267.75 275.57 267.08 276.65C266.41 277.72 265.25 280.97 268.73 288.05C271.02 292.68 274.66 295.03 279.57 295.03C281.28 295.03 282.72 294.74 283.57 294.57C283.98 294.49 284.22 294.44 284.4 294.44C284.45 294.44 284.57 294.45 284.62 294.47C284.82 294.46 285.04 294.45 285.31 294.44C285.77 294.41 286.39 294.38 287.09 294.38C291.79 294.38 294.55 295.89 295.29 298.86C296.73 304.61 297.68 322.96 297.96 329.13ZM306.64 331.12C303.87 331.12 300.75 330.77 297.35 330.08C297.11 330.03 296.94 329.83 296.92 329.59C296.67 323.9 295.71 304.9 294.27 299.12C293.65 296.68 291.24 295.44 287.09 295.44C286.41 295.44 285.81 295.47 285.36 295.49C284.84 295.52 284.55 295.53 284.37 295.5C284.26 295.51 284.06 295.55 283.78 295.6C282.88 295.78 281.38 296.08 279.57 296.08C274.3 296.08 270.23 293.47 267.79 288.52C264.2 281.24 265.24 277.61 266.18 276.1C267.01 274.76 268.41 274.08 269.78 274.32C270.51 272.43 271.8 272.13 272.55 272.13C273.5 272.13 274.56 272.6 275.47 273.4C275.93 272.82 276.55 272.51 277.27 272.51C279.38 272.51 281.9 275.13 282.67 278.12C283.52 281.39 284.25 284.21 289.61 284.21C290.37 284.21 291.22 284.15 292.13 284.04C292.72 283.96 293.32 283.88 293.92 283.8C296.28 283.48 298.72 283.15 301.11 283.15C305.48 283.15 311.63 284.14 314.48 292.7C318.32 304.22 321.49 322.27 321.53 322.45C321.53 322.5 321.54 322.56 321.53 322.61C321.52 322.7 320.24 331.12 306.64 331.12Z" fill="#292929" fill-opacity="1.000000" fill-rule="nonzero"/>
	<path d="M272.34 293.89C272.23 293.89 272.12 293.86 272.02 293.78C268.78 291.28 266.62 287.53 265.62 282.65C265.56 282.36 265.75 282.08 266.03 282.02C266.32 281.96 266.6 282.15 266.66 282.43C267.61 287.06 269.63 290.6 272.67 292.95C272.9 293.13 272.94 293.46 272.76 293.69C272.66 293.82 272.5 293.89 272.34 293.89Z" fill="#292929" fill-opacity="1.000000" fill-rule="nonzero"/>
	<path d="M285.89 291.97C285.88 291.97 285.88 291.97 285.87 291.97C282.92 291.84 280.47 290.58 278.6 288.21C275.02 283.7 274.62 276.41 275.05 274.14C275.1 273.85 275.38 273.66 275.67 273.72C275.96 273.78 276.14 274.05 276.09 274.34C275.7 276.4 276.11 283.37 279.43 287.56C281.1 289.67 283.28 290.8 285.91 290.91C286.2 290.93 286.43 291.17 286.42 291.46C286.41 291.75 286.17 291.97 285.89 291.97Z" fill="#292929" fill-opacity="1.000000" fill-rule="nonzero"/>
	<path d="M280.3 295.84C280.29 295.84 280.27 295.84 280.26 295.83C277.5 295.6 275.2 294.32 273.41 292.01C269.2 286.55 269.22 277.06 269.6 274.87C269.66 274.58 269.93 274.38 270.22 274.44C270.5 274.49 270.7 274.76 270.65 275.05C270.28 277.14 270.25 286.19 274.25 291.37C275.84 293.43 277.89 294.58 280.35 294.78C280.64 294.81 280.85 295.06 280.83 295.35C280.8 295.63 280.57 295.84 280.3 295.84Z" fill="#292929" fill-opacity="1.000000" fill-rule="nonzero"/>
	<path d="M379.63 339.02C384.36 341.17 398.11 346.05 423.05 339.74C422.19 356.94 420.47 393.2 420.47 393.2C420.47 393.2 399.69 404.95 385.79 400.08C381.92 393.49 379.63 339.02 379.63 339.02Z" fill="#292929" fill-opacity="1.000000" fill-rule="nonzero"/>
	<path d="M383.88 325.41C388.04 324.84 392.52 323.26 392.09 316.38C391.66 309.5 390.52 300.47 390.52 300.47C379.77 300.32 369.16 294.74 364.29 283.7C359.42 272.66 365.87 266.93 369.45 255.46C373.03 244 379.77 234.54 394.82 235.54C409.87 236.55 417.89 243.71 417.89 243.71C415.31 257.18 412.73 276.25 418.32 277.39C423.91 278.54 425.35 268.65 425.35 268.65C433.8 264.49 442.66 269.55 439.25 276.96C435.09 285.99 425.2 281.41 425.2 281.41C423.2 286.57 414.74 292.3 414.74 292.3C416.03 302.91 417.31 320.45 425.34 321.45C422.04 338.22 420.33 344.33 420.33 344.33C420.33 344.33 391.52 351.35 381.06 341.03C381.49 337.45 383.88 325.41 383.88 325.41Z" fill="#FEFEFE" fill-opacity="1.000000" fill-rule="nonzero"/>
	<path d="M381.61 340.83C385.33 344.35 391.73 346.13 400.64 346.13C409.58 346.13 418.2 344.27 419.9 343.88C420.27 342.48 421.92 336.06 424.72 321.88C417.43 320.28 415.77 305.83 414.55 295.2C414.43 294.22 414.32 293.26 414.22 292.36C414.19 292.17 414.28 291.97 414.44 291.86C414.53 291.81 422.79 286.16 424.71 281.21C424.76 281.08 424.87 280.97 425 280.92C425.14 280.86 425.29 280.87 425.42 280.93C425.45 280.94 427.87 282.04 430.74 282.04C434.45 282.04 437.15 280.26 438.77 276.74C439.75 274.61 439.71 272.61 438.64 270.95C437.33 268.9 434.67 267.68 431.53 267.68C429.64 267.68 427.67 268.14 425.82 269.01C425.55 270.59 424 278.01 419.2 278.01C418.88 278.01 418.55 277.98 418.22 277.91C413.51 276.94 413.2 265.51 417.31 243.92C415.92 242.79 408.09 236.96 394.78 236.07C382.28 235.24 374.39 241.42 369.95 255.62C368.93 258.91 367.64 261.78 366.51 264.31C363.64 270.73 361.38 275.8 364.77 283.49C369.19 293.48 379.05 299.79 390.52 299.94C390.79 299.94 391.01 300.14 391.04 300.4C391.05 300.49 392.19 309.53 392.62 316.34C393.07 323.57 388.22 325.29 384.33 325.88C383.93 327.87 382.06 337.41 381.61 340.83ZM400.64 347.19C391.29 347.19 384.58 345.24 380.69 341.41C380.57 341.29 380.51 341.13 380.53 340.97C380.96 337.4 383.27 325.8 383.36 325.31C383.41 325.09 383.59 324.92 383.81 324.89C387.87 324.33 391.97 322.88 391.57 316.41C391.2 310.5 390.29 302.9 390.05 300.99C378.36 300.67 368.33 294.16 363.81 283.91C360.22 275.79 362.57 270.54 365.55 263.88C366.72 261.25 367.94 258.53 368.94 255.31C373.49 240.77 381.94 234.15 394.85 235.02C409.91 236.02 417.91 243.02 418.24 243.32C418.38 243.44 418.45 243.63 418.41 243.81C414.54 264.03 414.54 276.08 418.43 276.88C418.69 276.93 418.95 276.96 419.2 276.96C423.56 276.96 424.81 268.66 424.82 268.57C424.85 268.4 424.96 268.25 425.11 268.18C427.18 267.16 429.4 266.63 431.53 266.63C435.03 266.63 438.03 268.03 439.53 270.38C440.78 272.33 440.85 274.75 439.73 277.18C437.48 282.07 433.59 283.1 430.74 283.1C428.4 283.1 426.39 282.44 425.48 282.09C423.35 286.74 416.74 291.54 415.3 292.55C415.4 293.36 415.5 294.21 415.6 295.08C416.81 305.62 418.47 320.06 425.4 320.93C425.55 320.95 425.68 321.02 425.77 321.14C425.85 321.26 425.89 321.41 425.86 321.55C422.59 338.15 420.85 344.41 420.84 344.47C420.78 344.65 420.64 344.79 420.45 344.84C420.36 344.86 410.7 347.19 400.64 347.19Z" fill="#292929" fill-opacity="1.000000" fill-rule="nonzero"/>
	<path d="M380.48 277.35C380.4 277.35 380.31 277.33 380.22 277.28C377.2 275.56 375.61 273.87 375.38 272.12C375.08 269.94 376.84 268.18 378.55 266.47C378.88 266.14 379.21 265.8 379.53 265.47C382.32 262.5 382.02 257.09 380.56 253.31C379.94 251.7 378.89 250.74 377.43 250.47C375.52 250.11 373.45 251.06 372.47 252.14C372.27 252.36 371.94 252.37 371.72 252.18C371.5 251.98 371.49 251.65 371.69 251.43C372.89 250.11 375.31 249 377.63 249.43C378.89 249.66 380.6 250.46 381.55 252.93C383.17 257.14 383.41 262.87 380.29 266.19C379.98 266.53 379.64 266.87 379.3 267.21C377.77 268.74 376.2 270.32 376.42 271.98C376.61 273.36 378.06 274.83 380.74 276.36C381 276.51 381.09 276.83 380.94 277.08C380.85 277.25 380.67 277.35 380.48 277.35Z" fill="#292929" fill-opacity="1.000000" fill-rule="nonzero"/>
	<path d="M406.38 259.48C406.21 259.48 406.04 259.4 405.94 259.25C400.37 250.94 394.45 252.08 391.41 253.51C391.15 253.63 390.83 253.52 390.71 253.25C390.58 252.99 390.7 252.67 390.96 252.55C393.65 251.29 400.58 249.36 406.82 258.66C406.98 258.9 406.92 259.23 406.67 259.39C406.58 259.45 406.48 259.48 406.38 259.48Z" fill="#292929" fill-opacity="1.000000" fill-rule="nonzero"/>
	<path d="M397.87 267C397.31 268.78 396.03 269.98 395.01 269.66C393.99 269.34 393.62 267.63 394.18 265.84C394.74 264.06 396.02 262.86 397.03 263.18C398.05 263.5 398.43 265.21 397.87 267Z" fill="#292929" fill-opacity="1.000000" fill-rule="nonzero"/>
	<path d="M397.3 264.35C397.07 264.35 396.86 264.21 396.8 263.98L395.84 260.73C395.76 260.45 395.92 260.15 396.2 260.07C396.48 259.99 396.77 260.15 396.85 260.43L397.81 263.68C397.89 263.96 397.73 264.25 397.45 264.33C397.4 264.35 397.35 264.35 397.3 264.35Z" fill="#292929" fill-opacity="1.000000" fill-rule="nonzero"/>
	<path d="M376.99 263.08C376.43 264.87 375.16 266.06 374.14 265.74C373.12 265.42 372.74 263.71 373.3 261.93C373.86 260.14 375.14 258.95 376.16 259.27C377.17 259.58 377.55 261.29 376.99 263.08Z" fill="#292929" fill-opacity="1.000000" fill-rule="nonzero"/>
	<path d="M376.42 260.44C376.2 260.44 375.99 260.29 375.92 260.06L374.96 256.81C374.88 256.53 375.04 256.23 375.32 256.15C375.6 256.07 375.89 256.23 375.98 256.51L376.93 259.76C377.01 260.04 376.85 260.33 376.57 260.41C376.52 260.43 376.47 260.44 376.42 260.44Z" fill="#292929" fill-opacity="1.000000" fill-rule="nonzero"/>
	<path d="M376.83 280.42C376.82 283.14 377.31 285.08 378.27 286.08C380.28 288.18 384.75 286.03 389.53 280.99C384.42 281.99 379.27 281.7 376.83 280.42ZM380.27 287.95C379.16 287.95 378.23 287.57 377.5 286.81C376.22 285.47 375.65 282.98 375.8 279.43C375.81 279.22 375.94 279.04 376.13 278.96C376.32 278.88 376.53 278.92 376.69 279.06C377.44 279.75 379.66 280.56 383.43 280.56C385.78 280.56 388.37 280.23 390.92 279.6C391.15 279.55 391.38 279.65 391.5 279.84C391.62 280.04 391.59 280.29 391.44 280.47C387.26 285.22 383.19 287.95 380.27 287.95Z" fill="#292929" fill-opacity="1.000000" fill-rule="nonzero"/>
	<path d="M378.05 287C377.96 287 377.87 286.98 377.79 286.93C377.53 286.78 377.45 286.46 377.59 286.21C378.83 284.05 383.88 282.7 386.89 283.72C387.17 283.81 387.32 284.11 387.22 284.39C387.13 284.67 386.83 284.81 386.55 284.72C383.83 283.79 379.43 285.13 378.51 286.73C378.41 286.9 378.23 287 378.05 287Z" fill="#292929" fill-opacity="1.000000" fill-rule="nonzero"/>
	<path d="M390.29 301.04C389.98 301.04 389.7 300.83 389.7 300.51C389.71 300.22 389.94 299.99 390.23 299.99C390.26 299.99 390.27 299.99 390.29 299.99C395.65 299.99 404.27 296.9 410.05 293.84C410.31 293.7 410.63 293.8 410.76 294.06C410.9 294.32 410.8 294.64 410.54 294.77C404.65 297.9 395.82 301.04 390.29 301.04Z" fill="#292929" fill-opacity="1.000000" fill-rule="nonzero"/>
	<path d="M297.07 327.13C299.51 327.99 311.4 327.99 321.01 322.54C322.58 331.28 328.46 357.37 328.46 357.37C336.63 348.48 347.95 338.02 353.11 333.58C358.27 329.13 366.15 324.83 373.89 325.12C381.63 325.41 385.64 324.98 385.64 324.98C385.64 324.98 379.48 335.87 382.63 366.11C385.79 396.35 386.79 400.36 386.79 400.36L376.19 399.36C376.19 399.36 378.33 392.63 371.89 384.89C365.44 377.15 363.57 372.27 362.71 366.54C355.83 373.56 337.49 393.06 322.15 393.2C306.82 393.34 301.37 379.58 299.22 362.38C297.07 345.19 297.07 327.13 297.07 327.13Z" fill="#40BDDE" fill-opacity="1.000000" fill-rule="nonzero"/>
	<path d="M415.17 393.01C410.87 394.3 392.38 399.79 383.92 399.22C375.47 398.65 366.73 394.49 359.85 396.21C352.97 397.93 341.17 406.6 342 410.04C342.65 412.69 345.8 411.26 345.8 411.26C346.95 413.69 349.24 412.4 349.24 412.4C350.39 414.84 355.69 413.41 358.84 410.68C362 407.96 365.86 406.53 370.74 408.25C375.61 409.97 383.21 412.4 392.09 412.83C400.98 413.26 421.91 412.29 421.91 412.29C421.91 412.29 425.06 399.89 415.17 393.01Z" fill="#FEFEFE" fill-opacity="1.000000" fill-rule="nonzero"/>
	<path d="M349.24 411.88C349.3 411.88 349.35 411.89 349.4 411.9C349.54 411.95 349.66 412.05 349.72 412.18C350.09 412.96 351.04 413.12 351.78 413.12C353.8 413.12 356.56 411.96 358.5 410.29C362.31 406.99 366.41 406.16 370.92 407.75C376.31 409.66 383.6 411.89 392.12 412.31C393.61 412.38 395.55 412.42 397.89 412.42C406.78 412.42 419.1 411.89 421.48 411.78C421.88 409.69 423.36 399.53 415.08 393.59C406.74 396.08 391.43 400.26 383.89 399.75C380.53 399.52 377.13 398.73 373.85 397.97C370.17 397.13 366.7 396.32 363.49 396.32C362.2 396.32 361.05 396.45 359.97 396.72C353.05 398.45 341.8 406.96 342.52 409.91C342.72 410.73 343.2 411.12 344.04 411.12C344.82 411.12 345.58 410.78 345.58 410.78C345.85 410.66 346.16 410.77 346.28 411.03C346.65 411.83 347.18 412.22 347.89 412.22C348.48 412.22 348.98 411.95 348.98 411.94C349.06 411.9 349.15 411.88 349.24 411.88ZM351.78 414.18C350.27 414.18 349.46 413.64 349.03 413.07C348.74 413.17 348.33 413.27 347.89 413.27C347.19 413.27 346.24 413.02 345.56 411.91C345.18 412.03 344.63 412.17 344.04 412.17C342.71 412.17 341.8 411.46 341.49 410.16C340.49 406.06 353.11 397.35 359.72 395.7C360.88 395.41 362.11 395.27 363.49 395.27C366.82 395.27 370.35 396.08 374.09 396.95C377.33 397.7 380.69 398.47 383.96 398.69C391.4 399.21 406.82 394.97 415.02 392.51C415.18 392.46 415.34 392.49 415.47 392.58C425.55 399.59 422.45 412.29 422.42 412.42C422.36 412.64 422.16 412.8 421.93 412.81C421.79 412.82 407.75 413.47 397.89 413.47C397.89 413.47 397.89 413.47 397.89 413.47C395.53 413.47 393.58 413.43 392.07 413.36C383.41 412.94 376.03 410.68 370.56 408.75C366.42 407.28 362.71 408.04 359.19 411.08C357.08 412.91 354.03 414.18 351.78 414.18Z" fill="#292929" fill-opacity="1.000000" fill-rule="nonzero"/>
	<path d="M439.68 388.18L440.68 376.14L443.98 387.32L439.68 388.18ZM480.09 382.88C473.79 365.97 468.34 347.62 463.18 339.31C458.02 331 451.86 323.26 440.39 322.11C432.08 321.54 424.63 321.25 424.63 321.25C421.91 328.42 413.16 363.1 417.75 392.2C415.74 392.2 414.31 393.34 414.31 393.34C418.9 397.07 421.48 403.81 420.33 412.83C440.25 414.41 461.32 411.26 468.2 409.54C475.08 407.82 486.4 399.79 480.09 382.88Z" fill="#40BDDE" fill-opacity="1.000000" fill-rule="nonzero"/>
	<path d="M289.38 285.18C289.1 285.18 288.87 284.96 288.85 284.68C288.83 284.39 289.05 284.14 289.34 284.12C290.33 284.06 291.51 283.95 292.8 283.83C297.14 283.42 302.53 282.91 305.75 283.74C306.03 283.82 306.2 284.1 306.13 284.39C306.05 284.67 305.77 284.84 305.48 284.77C302.44 283.98 297.15 284.48 292.9 284.88C291.6 285 290.4 285.12 289.41 285.18C289.4 285.18 289.39 285.18 289.38 285.18Z" fill="#292929" fill-opacity="1.000000" fill-rule="nonzero"/>
	<path d="M363.14 369.51C362.89 369.51 362.68 369.33 362.62 369.08C361.67 364.29 362.74 358.14 364.23 354.17C364.33 353.9 364.63 353.76 364.9 353.86C365.18 353.97 365.32 354.27 365.21 354.54C364.14 357.4 362.61 363.63 363.66 368.87C363.72 369.16 363.53 369.44 363.25 369.49C363.21 369.5 363.18 369.51 363.14 369.51Z" fill="#292929" fill-opacity="1.000000" fill-rule="nonzero"/>
	<path d="M414.63 393.49C414.39 393.49 414.18 393.33 414.12 393.09C414.04 392.81 414.21 392.52 414.49 392.45C419.13 391.22 448.17 385.52 458.41 384.65C458.69 384.62 458.95 384.84 458.98 385.13C459 385.42 458.79 385.67 458.5 385.7C448.3 386.57 419.38 392.25 414.76 393.47C414.72 393.48 414.67 393.49 414.63 393.49Z" fill="#292929" fill-opacity="1.000000" fill-rule="nonzero"/>
	<path d="M441.4 378.54C441.17 378.54 440.97 378.39 440.89 378.17C439.86 374.93 437.31 364.7 436.08 359.78L435.73 358.36C435.66 358.07 435.83 357.79 436.11 357.72C436.39 357.64 436.68 357.82 436.75 358.1L437.11 359.53C438.33 364.43 440.87 374.64 441.9 377.85C441.99 378.12 441.84 378.42 441.56 378.51C441.5 378.53 441.45 378.54 441.4 378.54Z" fill="#292929" fill-opacity="1.000000" fill-rule="nonzero"/>
	<path d="M349.24 412.93C349.22 412.93 349.21 412.93 349.19 412.93C348.9 412.9 348.69 412.65 348.71 412.36C348.89 410.44 356.61 404 363.57 402.01C363.85 401.92 364.14 402.09 364.22 402.37C364.3 402.65 364.14 402.94 363.86 403.02C356.85 405.03 349.88 411.21 349.77 412.45C349.74 412.73 349.51 412.93 349.24 412.93Z" fill="#292929" fill-opacity="1.000000" fill-rule="nonzero"/>
	<path d="M345.8 411.79C345.51 411.79 345.27 411.55 345.27 411.26C345.27 408.5 351.06 402.69 360.12 399.86C360.4 399.77 360.69 399.93 360.78 400.21C360.87 400.49 360.71 400.78 360.43 400.87C351.13 403.78 346.33 409.47 346.33 411.26C346.33 411.55 346.09 411.79 345.8 411.79Z" fill="#292929" fill-opacity="1.000000" fill-rule="nonzero"/>
	<path d="M383.2 410.85L337.94 410.85L319.73 357.65C318.14 353.01 312.83 349.22 307.92 349.22L230.63 349.22C225.73 349.22 223.02 353.01 224.6 357.65L243.37 412.45C245.42 417.77 245.66 422.15 250.99 422.15L383.2 422.15C386.32 422.15 388.85 419.62 388.85 416.49C388.85 413.37 386.32 410.85 383.2 410.85Z" fill="#FAAD3A" fill-opacity="1.000000" fill-rule="nonzero"/>
	<path d="M333.95 412.36L244.06 412.36C243.77 412.36 243.53 412.12 243.53 411.83C243.53 411.54 243.77 411.3 244.06 411.3L333.95 411.3C334.24 411.3 334.48 411.54 334.48 411.83C334.48 412.12 334.24 412.36 333.95 412.36Z" fill="#292929" fill-opacity="1.000000" fill-rule="nonzero"/>
	<path d="M275.23 376.87C273.9 376.87 272.8 377.39 272.05 378.39C270.97 379.83 270.74 382.04 271.44 384.45C272.69 388.79 276.54 392.32 280 392.32C281.33 392.32 282.43 391.8 283.18 390.8C284.26 389.35 284.49 387.15 283.79 384.74C282.54 380.4 278.7 376.87 275.23 376.87ZM280 393.38C276.1 393.38 271.8 389.5 270.42 384.74C269.64 382.01 269.92 379.47 271.21 377.76C272.15 376.5 273.58 375.81 275.23 375.81C279.14 375.81 283.43 379.69 284.81 384.45C285.6 387.17 285.31 389.72 284.02 391.43C283.08 392.69 281.65 393.38 280 393.38Z" fill="#292929" fill-opacity="1.000000" fill-rule="nonzero"/>
</svg>
