<svg width="197.000000" height="38.000000" viewBox="0 0 197 38" fill="none" xmlns="http://www.w3.org/2000/svg" xmlns:xlink="http://www.w3.org/1999/xlink">
	<desc>
			Created with Pixso.
	</desc>
	<defs/>
	<path id="Vector" d="M12.22 37.41L4.82 37.41L4.82 18.97L-0.22 18.97L-0.22 12.96L4.82 12.96L4.82 8.69C4.82 3.63 7.05 0 14.43 0C15.99 0 18.44 0.31 18.44 0.31L18.44 5.89L15.86 5.89C13.24 5.89 12.22 6.68 12.22 8.89L12.22 12.96L18.34 12.96L17.8 18.97L12.22 18.97L12.22 37.41ZM29.2 12.48C29.09 12.48 28.98 12.49 28.87 12.49C22.01 12.49 18.87 17.65 18.87 24.98C18.87 34.2 22.94 37.9 28.92 37.9C32.34 37.9 34.59 36.46 35.96 33.77L35.96 37.42L43 37.42L43 12.97L35.96 12.97L35.96 16.73C34.85 14.31 32.53 12.51 29.2 12.48ZM30.99 18.26C33.87 18.26 35.6 20.27 35.6 23.69L35.6 27.18C35.6 29.48 34.17 32.18 30.99 32.18C26.09 32.18 26.22 26.89 26.22 25.12C26.22 19.19 28.82 18.26 30.99 18.26ZM45.84 25.2C45.84 22.23 45.7 12.5 58.37 12.5C63.45 12.5 65.58 14.12 65.58 14.12L63.87 19.42C63.87 19.42 61.75 18.25 58.99 18.25C55.45 18.25 53.19 20.3 53.19 23.91L53.2 26.5C53.2 29.97 55.38 32.28 59 32.28C61.51 32.28 63.83 31.1 63.83 31.1L65.53 36.28C65.53 36.28 63.59 37.91 58.4 37.91C46.34 37.9 45.84 29.18 45.84 25.2ZM106.84 12.49C113.7 12.49 116.89 17.65 116.89 24.98C116.89 34.2 112.82 37.9 106.84 37.9C103.42 37.9 100.89 36.46 99.52 33.77L99.52 37.42L92.57 37.41L92.57 0.74L99.95 0.09L99.95 16.39C101.01 13.54 104.51 12.49 106.84 12.49ZM104.77 18.26C101.89 18.26 99.95 20.27 99.95 23.69L99.94 27.18C99.93 29.48 101.29 32.18 104.77 32.18C109.67 32.18 109.54 26.89 109.54 25.12C109.54 19.19 106.93 18.26 104.77 18.26ZM78.38 12.51C70.6 12.51 66.49 16.75 66.49 24.29L66.49 25.69C66.49 35.48 72.25 38 79.13 38C85.82 38 88.85 36.12 88.85 36.12L87.46 31.14C87.46 31.14 83.9 32.66 80.02 32.66C75.99 32.66 74.25 31.63 73.81 27.76L89.43 27.76L89.43 23.76C89.44 15.59 84.82 12.51 78.38 12.51ZM78.56 17.5C81.26 17.5 83 19.15 82.91 22.98L73.82 22.98C73.98 18.95 75.86 17.5 78.56 17.5ZM131.6 12.48C123.61 12.48 119.41 16.98 119.41 25.05C119.41 36.12 126.66 37.91 131.62 37.91C138.88 37.91 143.71 34 143.71 25.15C143.71 15.95 138.28 12.48 131.6 12.48ZM131.5 18.28C135.01 18.28 136.41 20.91 136.41 23.9L136.41 26.48C136.41 30.1 134.46 32.2 131.49 32.2C128.71 32.2 126.75 30.24 126.75 26.48L126.75 23.9C126.75 19.89 129.08 18.28 131.5 18.28ZM158.41 12.48C150.42 12.48 146.21 16.98 146.21 25.05C146.21 36.12 153.46 37.91 158.42 37.91C165.69 37.91 170.52 34 170.52 25.15C170.51 15.95 165.08 12.48 158.41 12.48ZM158.31 18.28C161.82 18.28 163.22 20.91 163.22 23.9L163.22 26.48C163.22 30.1 161.27 32.2 158.3 32.2C155.52 32.2 153.56 30.24 153.56 26.48L153.56 23.9C153.56 19.89 155.89 18.28 158.31 18.28ZM173.3 37.41L173.3 0.74L180.7 0.09L180.7 24.67L188.05 12.96L195.86 12.96L188.21 25.09L196.16 37.41L188.32 37.41L180.7 25.45L180.7 37.41L173.3 37.41Z" fill="#1877F2" fill-opacity="1.000000" fill-rule="nonzero"/>
</svg>
