<svg width="166.000000" height="50.000000" viewBox="0 0 166 50" fill="none" xmlns="http://www.w3.org/2000/svg" xmlns:xlink="http://www.w3.org/1999/xlink">
	<desc>
			Created with Pixso.
	</desc>
	<defs/>
	<path d="M24.16 0C10.36 0 -0.84 11.19 -0.84 25C-0.84 38.8 10.36 50 24.16 50C37.96 50 49.16 38.8 49.16 25C49.2 11.19 38.01 0 24.16 0ZM35.63 36.06C35.17 36.79 34.21 37.02 33.48 36.56C27.59 32.95 20.23 32.17 11.5 34.14C10.68 34.32 9.81 33.82 9.62 32.95C9.44 32.12 9.94 31.26 10.81 31.07C20.36 28.88 28.5 29.84 35.13 33.86C35.86 34.36 36.09 35.32 35.63 36.06ZM38.69 29.25C38.14 30.16 36.91 30.43 36 29.89C29.28 25.77 19.04 24.54 11.09 26.96C10.04 27.28 8.98 26.69 8.66 25.68C8.34 24.63 8.94 23.58 9.94 23.26C19.04 20.52 30.33 21.84 38.05 26.59C38.97 27.14 39.29 28.33 38.69 29.25ZM38.97 22.16C30.92 17.36 17.62 16.95 9.9 19.28C8.66 19.65 7.34 18.96 6.97 17.73C6.61 16.49 7.29 15.17 8.53 14.8C17.35 12.11 32.06 12.66 41.34 18.14C42.44 18.78 42.81 20.24 42.17 21.34C41.53 22.44 40.06 22.8 38.97 22.16ZM67.21 23.08C62.87 22.02 62.14 21.34 62.14 19.78C62.14 18.37 63.51 17.36 65.52 17.36C67.49 17.36 69.4 18.09 71.42 19.6C71.46 19.65 71.55 19.65 71.64 19.65C71.74 19.65 71.78 19.6 71.83 19.51L73.93 16.54C74.02 16.4 73.98 16.27 73.88 16.17C71.46 14.25 68.76 13.29 65.57 13.29C60.9 13.29 57.66 16.08 57.66 20.1C57.66 24.4 60.49 25.91 65.34 27.1C69.45 28.06 70.18 28.83 70.18 30.25C70.18 31.85 68.76 32.81 66.48 32.81C63.97 32.81 61.91 31.94 59.58 29.98C59.53 29.93 59.44 29.89 59.35 29.89C59.26 29.89 59.21 29.93 59.17 29.98L56.79 32.81C56.7 32.95 56.7 33.08 56.84 33.22C59.53 35.6 62.82 36.88 66.34 36.88C71.37 36.88 74.62 34.14 74.62 29.89C74.62 26.32 72.47 24.36 67.21 23.08ZM86 18.83C83.8 18.83 82.02 19.69 80.56 21.43L80.56 19.46C80.56 19.33 80.42 19.19 80.28 19.19L76.4 19.19C76.26 19.19 76.12 19.33 76.12 19.46L76.12 41.45C76.12 41.59 76.26 41.72 76.4 41.72L80.28 41.72C80.42 41.72 80.56 41.59 80.56 41.45L80.56 34.5C82.02 36.15 83.8 36.97 86 36.97C90.06 36.97 94.13 33.86 94.13 27.92C94.13 21.93 90.06 18.83 86 18.83ZM89.65 27.87C89.65 30.89 87.78 33.04 85.13 33.04C82.48 33.04 80.47 30.85 80.47 27.87C80.47 24.95 82.48 22.71 85.13 22.71C87.73 22.76 89.65 24.9 89.65 27.87ZM104.64 18.83C99.43 18.83 95.36 22.85 95.36 27.97C95.36 33.04 99.43 37.02 104.6 37.02C109.81 37.02 113.92 32.99 113.92 27.92C113.92 22.8 109.85 18.83 104.64 18.83ZM104.64 33.08C101.86 33.08 99.8 30.85 99.8 27.92C99.8 24.95 101.81 22.8 104.6 22.8C107.39 22.8 109.49 25.04 109.49 27.97C109.49 30.94 107.43 33.08 104.64 33.08ZM125.03 19.14L120.78 19.14L120.78 14.8C120.78 14.67 120.64 14.53 120.5 14.53L116.62 14.53C116.48 14.53 116.34 14.67 116.34 14.8L116.34 19.14L114.47 19.14C114.33 19.14 114.2 19.28 114.2 19.42L114.2 22.76C114.2 22.89 114.33 23.03 114.47 23.03L116.34 23.03L116.34 31.62C116.34 35.1 118.08 36.88 121.51 36.88C122.88 36.88 124.02 36.6 125.12 35.96C125.21 35.92 125.26 35.83 125.26 35.74L125.26 32.58C125.26 32.49 125.21 32.4 125.12 32.35C125.03 32.31 124.94 32.31 124.84 32.35C124.11 32.72 123.38 32.9 122.56 32.9C121.32 32.9 120.78 32.35 120.78 31.07L120.78 23.08L125.03 23.08C125.16 23.08 125.3 22.94 125.3 22.8L125.3 19.46C125.35 19.28 125.21 19.19 125.03 19.14ZM139.88 19.19L139.88 18.64C139.88 17.09 140.47 16.36 141.85 16.36C142.67 16.36 143.31 16.54 144.04 16.77C144.13 16.81 144.22 16.77 144.31 16.72C144.41 16.68 144.45 16.59 144.45 16.49L144.45 13.25C144.45 13.11 144.36 13.02 144.27 12.97C143.49 12.75 142.53 12.52 141.07 12.52C137.5 12.52 135.63 14.53 135.63 18.32L135.63 19.14L133.76 19.14C133.62 19.14 133.48 19.28 133.48 19.42L133.48 22.76C133.48 22.89 133.62 23.03 133.76 23.03L135.63 23.03L135.63 36.28C135.63 36.42 135.77 36.56 135.9 36.56L139.79 36.56C139.93 36.56 140.06 36.42 140.06 36.28L140.06 23.03L143.67 23.03L149.2 36.28C148.56 37.66 147.97 37.97 147.1 37.97C146.42 37.97 145.69 37.79 144.95 37.38C144.86 37.34 144.82 37.34 144.73 37.38C144.63 37.43 144.59 37.47 144.54 37.52L143.22 40.4C143.17 40.53 143.22 40.67 143.35 40.76C144.73 41.49 145.96 41.81 147.47 41.81C150.3 41.81 151.9 40.49 153.27 36.92L159.99 19.6C160.04 19.51 160.04 19.42 159.94 19.33C159.9 19.24 159.81 19.19 159.72 19.19L155.69 19.19C155.56 19.19 155.47 19.28 155.42 19.37L151.31 31.17L146.78 19.37C146.74 19.28 146.64 19.19 146.51 19.19L139.88 19.19ZM131.29 19.14L127.4 19.14C127.27 19.14 127.13 19.28 127.13 19.42L127.13 36.28C127.13 36.42 127.27 36.56 127.4 36.56L131.29 36.56C131.42 36.56 131.56 36.42 131.56 36.28L131.56 19.42C131.56 19.28 131.42 19.14 131.29 19.14ZM129.37 11.47C127.81 11.47 126.58 12.7 126.58 14.25C126.58 15.81 127.81 17.04 129.37 17.04C130.92 17.04 132.16 15.81 132.16 14.25C132.11 12.75 130.88 11.47 129.37 11.47ZM163.24 24.58C161.73 24.58 160.49 23.35 160.49 21.84C160.49 20.33 161.68 19.1 163.24 19.1C164.74 19.1 165.98 20.33 165.98 21.84C165.98 23.35 164.79 24.58 163.24 24.58ZM163.24 19.42C161.82 19.42 160.77 20.52 160.77 21.89C160.77 23.26 161.82 24.36 163.19 24.36C164.61 24.36 165.66 23.26 165.66 21.89C165.7 20.52 164.65 19.42 163.24 19.42ZM163.88 22.12L164.65 23.21L164.01 23.21L163.33 22.21L162.73 22.21L162.73 23.21L162.18 23.21L162.18 20.33L163.46 20.33C164.15 20.33 164.56 20.65 164.56 21.25C164.52 21.75 164.24 22.02 163.88 22.12ZM163.42 20.84L162.73 20.84L162.73 21.75L163.42 21.75C163.78 21.75 163.97 21.57 163.97 21.29C163.97 21.02 163.74 20.84 163.42 20.84Z" fill="#1ED760" fill-opacity="1.000000" fill-rule="nonzero"/>
</svg>
