<svg width="160.000000" height="50.000000" viewBox="0 0 160 50" fill="none" xmlns="http://www.w3.org/2000/svg" xmlns:xlink="http://www.w3.org/1999/xlink">
	<desc>
			Created with Pixso.
	</desc>
	<defs/>
	<path d="M83.94 12.6C83.94 14.4 82.49 15.86 80.69 15.86C78.88 15.86 77.43 14.41 77.43 12.6C77.43 10.8 78.84 9.35 80.69 9.35C82.53 9.4 83.94 10.85 83.94 12.6ZM70.49 19.15C70.49 19.46 70.49 19.94 70.49 19.94C70.49 19.94 68.96 17.92 65.62 17.92C60.17 17.92 55.9 22.09 55.9 27.85C55.9 33.56 60.12 37.78 65.62 37.78C68.96 37.78 70.49 35.71 70.49 35.71L70.49 36.55C70.49 36.94 70.8 37.25 71.2 37.25L75.24 37.25L75.24 18.45C75.24 18.45 71.55 18.45 71.2 18.45C70.8 18.45 70.49 18.8 70.49 19.15ZM70.49 31.23C69.75 32.33 68.25 33.3 66.45 33.3C63.24 33.3 60.78 31.28 60.78 27.9C60.78 24.47 63.24 22.49 66.45 22.49C68.21 22.49 69.79 23.5 70.49 24.56L70.49 31.23ZM78.27 18.45L83.06 18.45L83.06 37.3L78.27 37.3L78.27 18.45ZM150.11 17.96C146.81 17.96 145.23 19.98 145.23 19.98L145.23 9.4L140.44 9.4L140.44 37.3C140.44 37.3 144.13 37.3 144.48 37.3C144.88 37.3 145.19 36.95 145.19 36.59L145.19 35.76C145.19 35.76 146.73 37.82 150.07 37.82C155.51 37.82 159.78 33.61 159.78 27.89C159.78 22.14 155.51 17.96 150.11 17.96ZM149.32 33.21C147.47 33.21 146.02 32.24 145.28 31.15L145.28 24.42C146.02 23.41 147.65 22.36 149.32 22.36C152.53 22.36 154.99 24.38 154.99 27.76C154.99 31.23 152.53 33.21 149.32 33.21ZM137.94 26.14L137.94 37.34L133.15 37.34L133.15 26.67C133.15 23.55 132.14 22.32 129.46 22.32C128.01 22.32 126.51 23.06 125.55 24.16L125.55 37.3L120.76 37.3L120.76 18.45L124.58 18.45C124.97 18.45 125.28 18.8 125.28 19.15L125.28 19.94C126.69 18.49 128.54 17.92 130.38 17.92C132.49 17.92 134.25 18.53 135.65 19.72C137.28 21.17 137.94 22.97 137.94 26.14ZM109.03 17.96C105.73 17.96 104.15 19.98 104.15 19.98L104.15 9.4L99.36 9.4L99.36 37.3C99.36 37.3 103.05 37.3 103.4 37.3C103.8 37.3 104.11 36.95 104.11 36.59L104.11 35.76C104.11 35.76 105.64 37.82 108.98 37.82C114.43 37.82 118.69 33.61 118.69 27.89C118.74 22.14 114.48 17.96 109.03 17.96ZM108.24 33.21C106.39 33.21 104.94 32.24 104.2 31.15L104.2 24.42C104.94 23.41 106.57 22.36 108.24 22.36C111.45 22.36 113.91 24.38 113.91 27.76C113.9 31.23 111.44 33.21 108.24 33.21ZM95.19 17.96C96.63 17.96 97.38 18.22 97.38 18.22L97.38 22.66C97.38 22.66 93.39 21.3 90.88 24.16L90.88 37.34L86.09 37.34L86.09 18.44C86.09 18.44 89.78 18.44 90.13 18.44C90.53 18.44 90.84 18.79 90.84 19.15L90.84 19.94C91.76 18.89 93.69 17.96 95.19 17.96ZM45.23 35.58C44.97 34.97 44.75 34.31 44.48 33.78C44.09 32.86 43.69 32.02 43.34 31.23L43.29 31.19C39.82 23.68 36.13 16.07 32.22 8.56L32.09 8.25C31.7 7.51 31.3 6.72 30.9 5.88C30.42 4.96 29.89 4.04 29.1 3.11C27.52 1.09 25.19 0 22.73 0C20.23 0 17.99 1.09 16.32 2.98C15.57 3.91 15 4.83 14.52 5.75C14.12 6.54 13.73 7.33 13.33 8.12L13.2 8.43C9.33 15.94 5.6 23.54 2.13 31.06L2.08 31.15C1.73 31.94 1.33 32.81 0.94 33.69C0.68 34.26 0.46 34.84 0.19 35.49C-0.47 37.34 -0.64 39.1 -0.42 40.9C0.15 44.68 2.65 47.79 6.08 49.2C7.4 49.77 8.72 50 10.12 50C10.52 50 11.05 49.95 11.44 49.91C13.11 49.69 14.78 49.16 16.45 48.19C18.52 47.05 20.45 45.38 22.64 42.97C24.84 45.38 26.86 47.01 28.84 48.19C30.51 49.16 32.18 49.69 33.85 49.91C34.24 49.95 34.77 50 35.17 50C36.57 50 37.98 49.73 39.21 49.2C42.72 47.8 45.19 44.59 45.71 40.9C46.11 39.18 45.89 37.43 45.23 35.58ZM22.64 38.17C19.92 34.75 18.21 31.54 17.59 28.86C17.33 27.72 17.28 26.71 17.46 25.79C17.55 24.99 17.85 24.29 18.25 23.68C19.22 22.31 20.8 21.48 22.64 21.48C24.49 21.48 26.16 22.27 27.04 23.68C27.43 24.29 27.74 24.99 27.83 25.79C27.96 26.71 27.92 27.72 27.7 28.86C27.12 31.54 25.37 34.75 22.64 38.17ZM42.64 40.55C42.29 43.14 40.53 45.42 38.07 46.39C36.88 46.87 35.56 47.05 34.24 46.87C32.97 46.74 31.74 46.3 30.42 45.56C28.62 44.54 26.82 43.01 24.71 40.68C28 36.64 30.02 32.9 30.77 29.6C31.12 28.07 31.17 26.66 31.03 25.34C30.82 24.07 30.37 22.93 29.67 21.92C28.14 19.67 25.5 18.36 22.6 18.36C19.7 18.36 17.11 19.72 15.52 21.92C14.82 22.93 14.38 24.07 14.16 25.34C13.94 26.66 14.03 28.11 14.42 29.6C15.17 32.9 17.23 36.68 20.49 40.72C18.42 43.01 16.58 44.59 14.77 45.6C13.46 46.35 12.23 46.74 10.95 46.92C9.59 47.05 8.32 46.87 7.13 46.44C4.67 45.42 2.91 43.18 2.56 40.59C2.43 39.32 2.51 38.09 3 36.68C3.13 36.2 3.39 35.67 3.66 35.1C4.01 34.31 4.41 33.43 4.8 32.59L4.84 32.51C8.32 25.04 12.01 17.44 15.87 10.01L16 9.7C16.4 8.95 16.8 8.17 17.19 7.42C17.59 6.63 18.03 5.88 18.6 5.22C19.65 4.03 21.06 3.38 22.59 3.38C24.13 3.38 25.54 4.04 26.59 5.22C27.16 5.88 27.6 6.63 28 7.42C28.39 8.17 28.79 8.95 29.18 9.7L29.32 10.01C33.14 17.48 36.83 25.08 40.3 32.55L40.3 32.59C40.7 33.39 41.05 34.31 41.44 35.1C41.71 35.71 41.93 36.2 42.1 36.68C42.68 38 42.86 39.23 42.64 40.55Z" fill="#FF5A5F" fill-opacity="1.000000" fill-rule="nonzero"/>
</svg>
