<svg width="211.000000" height="45.000000" viewBox="0 0 211 45" fill="none" xmlns="http://www.w3.org/2000/svg" xmlns:xlink="http://www.w3.org/1999/xlink">
	<desc>
			Created with Pixso.
	</desc>
	<defs/>
	<path d="M210.49 19.8L210.49 16.08L205.88 16.08L205.88 10.31L205.71 10.37L201.39 11.7L201.28 11.7L201.28 16.08L194.45 16.08L194.45 13.64C194.45 12.53 194.73 11.65 195.23 11.09C195.73 10.54 196.45 10.2 197.34 10.2C198 10.2 198.67 10.37 199.33 10.65L199.5 10.7L199.5 6.82L199.44 6.76C198.83 6.54 197.95 6.43 196.89 6.43C195.56 6.43 194.34 6.71 193.29 7.32C192.23 7.87 191.4 8.7 190.79 9.76C190.18 10.81 189.9 12.03 189.9 13.37L189.9 16.03L186.68 16.03L186.68 19.75L189.9 19.75L189.9 35.39L194.51 35.39L194.51 19.75L201.33 19.75L201.33 29.73C201.33 33.84 203.27 35.89 207.05 35.89C207.66 35.89 208.32 35.84 208.99 35.67C209.65 35.5 210.15 35.39 210.43 35.23L210.49 35.17L210.49 31.45L210.32 31.57C210.04 31.73 209.77 31.84 209.38 31.95C208.99 32.06 208.71 32.12 208.49 32.12C207.6 32.12 206.94 31.9 206.55 31.4C206.16 30.9 205.94 30.07 205.94 28.9L205.94 19.8L210.49 19.8ZM176.42 32.12C174.75 32.12 173.42 31.57 172.48 30.46C171.53 29.35 171.09 27.79 171.09 25.79C171.09 23.74 171.59 22.13 172.48 21.02C173.42 19.91 174.7 19.36 176.36 19.36C177.97 19.36 179.25 19.91 180.14 20.97C181.02 22.02 181.52 23.63 181.52 25.68C181.52 27.79 181.08 29.4 180.25 30.46C179.36 31.62 178.08 32.12 176.42 32.12ZM176.58 15.64C173.42 15.64 170.87 16.58 169.04 18.41C167.21 20.25 166.32 22.8 166.32 26.02C166.32 29.07 167.21 31.45 168.98 33.23C170.76 35.01 173.14 35.89 176.08 35.89C179.19 35.89 181.63 34.95 183.46 33.06C185.3 31.18 186.18 28.68 186.18 25.57C186.18 22.52 185.35 20.02 183.63 18.3C181.97 16.53 179.64 15.64 176.58 15.64ZM158.94 15.64C156.77 15.64 155 16.2 153.61 17.31C152.22 18.41 151.56 19.86 151.56 21.58C151.56 22.47 151.73 23.3 152 23.96C152.28 24.63 152.78 25.24 153.39 25.74C154 26.24 154.94 26.79 156.16 27.29C157.22 27.74 158 28.07 158.49 28.4C158.99 28.68 159.33 28.96 159.49 29.23C159.66 29.51 159.77 29.9 159.77 30.34C159.77 31.62 158.77 32.29 156.77 32.29C156.05 32.29 155.17 32.12 154.28 31.84C153.33 31.51 152.5 31.12 151.73 30.51L151.56 30.4L151.56 34.84L151.61 34.89C152.28 35.17 153.11 35.45 154.06 35.67C155 35.89 155.89 35.95 156.66 35.95C158.99 35.95 160.94 35.39 162.27 34.28C163.66 33.17 164.38 31.68 164.38 29.9C164.38 28.62 163.99 27.46 163.27 26.57C162.55 25.68 161.21 24.85 159.44 24.13C158 23.58 157.11 23.08 156.72 22.69C156.33 22.35 156.16 21.86 156.16 21.19C156.16 20.63 156.39 20.19 156.89 19.8C157.39 19.41 158 19.25 158.83 19.25C159.6 19.25 160.38 19.36 161.16 19.58C161.94 19.8 162.6 20.13 163.21 20.52L163.38 20.63L163.38 16.42L163.32 16.36C162.77 16.14 162.1 15.92 161.27 15.81C160.38 15.75 159.6 15.64 158.94 15.64ZM139.52 32.12C137.85 32.12 136.52 31.57 135.58 30.46C134.64 29.35 134.19 27.79 134.19 25.79C134.19 23.74 134.69 22.13 135.58 21.02C136.52 19.91 137.8 19.36 139.46 19.36C141.07 19.36 142.35 19.91 143.24 20.97C144.12 22.02 144.62 23.63 144.62 25.68C144.62 27.79 144.18 29.4 143.35 30.46C142.51 31.62 141.24 32.12 139.52 32.12ZM139.74 15.64C136.58 15.64 134.02 16.58 132.19 18.41C130.36 20.25 129.47 22.8 129.47 26.02C129.47 29.07 130.36 31.45 132.14 33.23C133.91 35.01 136.3 35.89 139.24 35.89C142.35 35.89 144.79 34.95 146.62 33.06C148.45 31.18 149.34 28.68 149.34 25.57C149.34 22.52 148.51 20.02 146.79 18.3C145.12 16.53 142.74 15.64 139.74 15.64ZM122.48 19.47L122.48 16.14L117.93 16.14L117.93 35.45L122.48 35.45L122.48 25.57C122.48 23.91 122.87 22.52 123.59 21.47C124.31 20.41 125.31 19.91 126.53 19.91C126.92 19.91 127.42 19.97 127.92 20.13C128.42 20.25 128.75 20.41 128.98 20.58L129.14 20.69L129.14 16.08L129.09 16.03C128.64 15.86 128.09 15.75 127.31 15.75C126.15 15.75 125.15 16.14 124.26 16.86C123.54 17.53 122.98 18.36 122.48 19.47ZM109.83 15.64C107.72 15.64 105.89 16.08 104.28 16.97C102.67 17.86 101.45 19.14 100.62 20.75C99.79 22.35 99.34 24.24 99.34 26.29C99.34 28.13 99.73 29.79 100.57 31.29C101.4 32.79 102.51 33.95 103.95 34.73C105.39 35.5 107.06 35.95 108.94 35.95C111.11 35.95 112.94 35.5 114.44 34.67L114.49 34.62L114.49 30.46L114.33 30.62C113.66 31.12 112.88 31.51 112.11 31.79C111.33 32.06 110.55 32.23 109.94 32.23C108.17 32.23 106.73 31.68 105.67 30.57C104.62 29.46 104.12 27.9 104.12 25.96C104.12 24.02 104.67 22.41 105.78 21.24C106.89 20.08 108.28 19.47 110.05 19.47C111.55 19.47 113 19.97 114.38 20.97L114.55 21.08L114.55 16.69L114.49 16.64C113.99 16.36 113.27 16.08 112.38 15.92C111.5 15.75 110.61 15.64 109.83 15.64ZM96.24 16.14L91.69 16.14L91.69 35.45L96.24 35.45L96.24 16.14ZM94.02 7.87C93.3 7.87 92.63 8.15 92.08 8.65C91.52 9.15 91.24 9.81 91.24 10.54C91.24 11.26 91.52 11.92 92.02 12.42C92.58 12.92 93.19 13.14 93.96 13.14C94.74 13.14 95.41 12.92 95.9 12.42C96.46 11.92 96.74 11.31 96.74 10.54C96.74 9.81 96.46 9.2 95.96 8.65C95.46 8.15 94.79 7.87 94.02 7.87ZM82.7 14.7L82.7 35.45L87.36 35.45L87.36 8.48L80.92 8.48L72.77 28.51L64.83 8.48L58.17 8.48L58.17 35.45L62.56 35.45L62.56 14.7L62.72 14.7L71.1 35.45L74.38 35.45L82.59 14.7L82.7 14.7Z" fill="#706D6E" fill-opacity="1.000000" fill-rule="nonzero"/>
	<path d="M21 20.86L-0.37 20.86L-0.37 -0.51L21 -0.51L21 20.86Z" fill="#F1511B" fill-opacity="1.000000" fill-rule="nonzero"/>
	<path d="M44.63 20.86L23.27 20.86L23.27 -0.51L44.63 -0.51L44.63 20.86Z" fill="#80CC28" fill-opacity="1.000000" fill-rule="nonzero"/>
	<path d="M21 44.5L-0.37 44.5L-0.37 23.08L21 23.08L21 44.5Z" fill="#00ADEF" fill-opacity="1.000000" fill-rule="nonzero"/>
	<path d="M44.63 44.5L23.27 44.5L23.27 23.08L44.63 23.08L44.63 44.5Z" fill="#FBBC09" fill-opacity="1.000000" fill-rule="nonzero"/>
</svg>
