<svg width="153.000000" height="49.000000" viewBox="0 0 153 49" fill="none" xmlns="http://www.w3.org/2000/svg" xmlns:xlink="http://www.w3.org/1999/xlink">
	<desc>
			Created with Pixso.
	</desc>
	<defs/>
	<path d="M37.54 16.65L19.71 16.65L19.71 21.93L32.34 21.93C31.72 29.36 25.53 32.49 19.71 32.49C12.25 32.49 5.77 26.64 5.77 18.43C5.77 10.42 11.96 4.28 19.71 4.28C25.7 4.28 29.24 8.11 29.24 8.11L32.96 4.28C32.96 4.28 28.21 -1 19.55 -1C8.53 -1 0 8.32 0 18.34C0 28.2 8.04 37.82 19.84 37.82C30.23 37.82 37.82 30.68 37.82 20.16C37.82 17.93 37.54 16.65 37.54 16.65Z" fill="#4285F4" fill-opacity="1.000000" fill-rule="nonzero"/>
	<path d="M52.1 12.82C44.8 12.82 39.56 18.55 39.56 25.19C39.56 31.96 44.63 37.77 52.18 37.77C59.03 37.77 64.6 32.53 64.6 25.36C64.64 17.06 58.12 12.82 52.1 12.82ZM52.18 17.72C55.77 17.72 59.19 20.61 59.19 25.32C59.19 29.89 55.81 32.91 52.18 32.91C48.18 32.91 45.04 29.73 45.04 25.32C45.04 20.94 48.14 17.72 52.18 17.72Z" fill="#EA4335" fill-opacity="1.000000" fill-rule="nonzero"/>
	<path d="M79.41 12.82C72.11 12.82 66.87 18.55 66.87 25.19C66.87 31.96 71.94 37.77 79.49 37.77C86.34 37.77 91.91 32.53 91.91 25.36C91.91 17.06 85.39 12.82 79.41 12.82ZM79.49 17.72C83.08 17.72 86.5 20.61 86.5 25.32C86.5 29.89 83.12 32.91 79.49 32.91C75.49 32.91 72.35 29.73 72.35 25.32C72.31 20.94 75.45 17.72 79.49 17.72Z" fill="#FBBC05" fill-opacity="1.000000" fill-rule="nonzero"/>
	<path d="M106.14 12.82C99.42 12.82 94.18 18.67 94.18 25.27C94.18 32.78 100.28 37.77 106.06 37.77C109.61 37.77 111.51 36.37 112.91 34.72L112.91 37.2C112.91 41.49 110.31 44.09 106.35 44.09C102.55 44.09 100.61 41.24 99.95 39.63L95.17 41.65C96.86 45.24 100.28 48.99 106.39 48.99C113.07 48.99 118.15 44.79 118.15 36L118.15 13.56L112.91 13.56L112.91 15.66C111.3 13.97 109.07 12.82 106.14 12.82ZM106.64 17.72C109.94 17.72 113.32 20.53 113.32 25.32C113.32 30.18 109.94 32.86 106.6 32.86C103.01 32.86 99.71 29.98 99.71 25.36C99.67 20.57 103.13 17.72 106.64 17.72Z" fill="#4285F4" fill-opacity="1.000000" fill-rule="nonzero"/>
	<path d="M141.37 12.82C135.06 12.82 129.74 17.85 129.74 25.27C129.74 33.15 135.68 37.82 141.99 37.82C147.27 37.82 150.53 34.93 152.43 32.33L148.1 29.44C146.98 31.17 145.09 32.86 141.99 32.86C138.48 32.86 136.88 30.93 135.89 29.07L152.63 22.14L151.77 20.12C150.16 16.12 146.36 12.82 141.37 12.82ZM141.62 17.6C143.89 17.6 145.54 18.8 146.24 20.28L135.06 24.94C134.57 21.31 137.99 17.6 141.62 17.6Z" fill="#EA4335" fill-opacity="1.000000" fill-rule="nonzero"/>
	<path d="M121.78 0.27L127.26 0.27L127.26 37.07L121.78 37.07L121.78 0.27Z" fill="#34A853" fill-opacity="1.000000" fill-rule="evenodd"/>
</svg>
